<?xml version="1.0" encoding="UTF-8" standalone="no"?>
<!-- Created with Inkscape (http://www.inkscape.org/) -->

<svg
   xmlns:dc="http://purl.org/dc/elements/1.1/"
   xmlns:cc="http://creativecommons.org/ns#"
   xmlns:rdf="http://www.w3.org/1999/02/22-rdf-syntax-ns#"
   xmlns:svg="http://www.w3.org/2000/svg"
   xmlns="http://www.w3.org/2000/svg"
   xmlns:sodipodi="http://sodipodi.sourceforge.net/DTD/sodipodi-0.dtd"
   xmlns:inkscape="http://www.inkscape.org/namespaces/inkscape"
   width="29.285715"
   height="28.928572"
   id="svg5663"
   version="1.1"
   inkscape:version="0.48.4 r9939"
   sodipodi:docname="container_squareX40reefer.svg">
  <defs
     id="defs5665" />
  <sodipodi:namedview
     id="base"
     pagecolor="#ffffff"
     bordercolor="#666666"
     borderopacity="1.0"
     inkscape:pageopacity="0.0"
     inkscape:pageshadow="2"
     inkscape:zoom="22.4"
     inkscape:cx="19.89773"
     inkscape:cy="17.374627"
     inkscape:document-units="px"
     inkscape:current-layer="layer1"
     showgrid="false"
     fit-margin-top="0"
     fit-margin-left="0"
     fit-margin-right="0"
     fit-margin-bottom="0"
     inkscape:window-width="1280"
     inkscape:window-height="706"
     inkscape:window-x="-8"
     inkscape:window-y="-8"
     inkscape:window-maximized="1" />
  <metadata
     id="metadata5668">
    <rdf:RDF>
      <cc:Work
         rdf:about="">
        <dc:format>image/svg+xml</dc:format>
        <dc:type
           rdf:resource="http://purl.org/dc/dcmitype/StillImage" />
        <dc:title />
      </cc:Work>
    </rdf:RDF>
  </metadata>
  <g
     inkscape:label="Livello 1"
     inkscape:groupmode="layer"
     id="layer1"
     transform="translate(-0.71428573,-1024.8622)">
    <rect
       style="fill:#5aa02c;fill-opacity:1"
       id="rect5671"
       width="29.285715"
       height="28.928572"
       x="0.71428573"
       y="1024.8622" />
    <text
       xml:space="preserve"
       style="font-size:40px;font-style:normal;font-weight:normal;line-height:125%;letter-spacing:0px;word-spacing:0px;fill:#000000;fill-opacity:1;stroke:none;font-family:Sans"
       x="10.571427"
       y="1043.005"
       id="text3009"
       sodipodi:linespacing="125%"><tspan
         sodipodi:role="line"
         id="tspan3011"
         x="10.571427"
         y="1043.005"
         style="font-size:9px;font-style:normal;font-variant:normal;font-weight:normal;font-stretch:normal;font-family:Franklin Gothic Demi;-inkscape-font-specification:Franklin Gothic Demi">40</tspan></text>
    <path
       style="fill:#aa0000;fill-opacity:1"
       d="m 2.530667,1031.8504 -0.4212728,-0.4067 0.9799164,-1.1318 0.9799164,-1.1319 -1.0321768,-1.0681 c -0.5676973,-0.5875 -1.0321769,-1.0856 -1.0321769,-1.1068 0,-0.021 0.1700855,-0.2349 0.3779678,-0.4747 l 0.3779677,-0.4361 1.0331506,1.0428 c 0.5682329,0.5736 1.0639161,1.0429 1.1015182,1.0429 0.037602,0 0.4451109,-0.4216 0.9055752,-0.9368 0.4604641,-0.5153 0.8869318,-0.9834 0.9477059,-1.0403 0.1061087,-0.099 0.1273204,-0.087 0.5340168,0.3044 l 0.4235186,0.4079 -0.9908516,1.1093 -0.9908519,1.1092 1.0530878,1.0745 1.0530878,1.0744 -0.4123565,0.4387 -0.4123565,0.4387 -0.7356027,-0.731 c -0.4045815,-0.402 -0.8637772,-0.8692 -1.0204348,-1.0381 -0.1566576,-0.1689 -0.3007399,-0.3071 -0.3201827,-0.3071 -0.019443,0 -0.4581274,0.4828 -0.9748542,1.0728 -0.5167269,0.5901 -0.9537989,1.079 -0.9712713,1.0866 -0.017472,0.01 -0.2213406,-0.1692 -0.4530405,-0.3928 l 0,0 z"
       id="path3007"
       inkscape:connector-curvature="0" />
    <path
       style="fill:#000080;fill-opacity:1"
       d="m 25.506807,1031.0487 0,-0.9759 -0.633532,0.647 -0.633531,0.6472 -0.29859,-0.3078 -0.298589,-0.308 0.656887,-0.6731 0.656887,-0.673 -0.35746,-0.029 c -0.196604,-0.015 -0.632524,-0.029 -0.968709,-0.029 l -0.611248,-3e-4 0,-0.4159 0,-0.4161 0.916548,-0.014 0.916548,-0.014 -0.616287,-0.5675 c -0.338956,-0.3121 -0.615766,-0.5788 -0.615133,-0.5926 6.33e-4,-0.014 0.12326,-0.1623 0.272512,-0.3304 l 0.271359,-0.3054 0.644604,0.6016 c 0.354533,0.3311 0.65656,0.6017 0.67117,0.6017 0.01461,0 0.02656,-0.3949 0.02656,-0.8776 l 0,-0.8778 0.407498,0 0.407499,0 0,0.9321 0,0.9321 0.685987,-0.7009 0.685988,-0.7008 0.300904,0.3055 0.300903,0.3055 -0.632474,0.6482 -0.632476,0.6482 0.868079,0 0.868078,0 0,0.4379 0,0.438 -0.840268,0.014 -0.840269,0.014 0.665821,0.6118 0.66582,0.6118 -0.259304,0.2992 c -0.142618,0.1646 -0.271618,0.3067 -0.286669,0.3157 -0.01506,0.014 -0.355508,-0.2877 -0.756572,-0.6596 l -0.729206,-0.676 -0.01155,1.0541 -0.01155,1.0541 -0.428183,0 -0.428183,0 0,-0.9758 z"
       id="path3100"
       inkscape:connector-curvature="0" />
  </g>
</svg>
