<?xml version="1.0" encoding="UTF-8" standalone="no"?>
<!-- Created with Serif DrawPlus 12,0,1,21 (Sep  5, 14:29:02) (http://www.serif.com) -->

<svg
   xmlns:dc="http://purl.org/dc/elements/1.1/"
   xmlns:cc="http://creativecommons.org/ns#"
   xmlns:rdf="http://www.w3.org/1999/02/22-rdf-syntax-ns#"
   xmlns:svg="http://www.w3.org/2000/svg"
   xmlns="http://www.w3.org/2000/svg"
   xmlns:sodipodi="http://sodipodi.sourceforge.net/DTD/sodipodi-0.dtd"
   xmlns:inkscape="http://www.inkscape.org/namespaces/inkscape"
   version="1.1"
   width="1019.04"
   height="201.923"
   id="svg3259"
   inkscape:version="0.48.4 r9939"
   sodipodi:docname="vesselProfileModified.svg">
  <sodipodi:namedview
     pagecolor="#ffffff"
     bordercolor="#666666"
     borderopacity="1"
     objecttolerance="10"
     gridtolerance="10"
     guidetolerance="10"
     inkscape:pageopacity="0"
     inkscape:pageshadow="2"
     inkscape:window-width="1280"
     inkscape:window-height="706"
     id="namedview3531"
     showgrid="false"
     inkscape:zoom="0.79797929"
     inkscape:cx="525.52458"
     inkscape:cy="195.93259"
     inkscape:window-x="-8"
     inkscape:window-y="-8"
     inkscape:window-maximized="1"
     inkscape:current-layer="svg3259" />
  <defs
     id="defs3261">
    <linearGradient
       id="grad_dp_001"
       gradientUnits="userSpaceOnUse"
       x1="569.003"
       y1="333.059"
       x2="569.363"
       y2="436.005">
      <stop
         offset="0"
         stop-color="#5b5b5b"
         id="stop3264" />
      <stop
         offset="1"
         stop-color="black"
         id="stop3266" />
    </linearGradient>
    <linearGradient
       id="grad_dp_002"
       gradientUnits="userSpaceOnUse"
       x1="833.123"
       y1="304.661"
       x2="843.691"
       y2="304.624">
      <stop
         offset="0"
         stop-color="#272525"
         id="stop3269" />
      <stop
         offset="0.4837"
         stop-color="#8e5923"
         id="stop3271" />
      <stop
         offset="1"
         stop-color="white"
         id="stop3273" />
    </linearGradient>
    <linearGradient
       id="grad_dp_003"
       gradientUnits="userSpaceOnUse"
       x1="92.9347"
       y1="463.747"
       x2="1063.76"
       y2="460.357">
      <stop
         offset="0"
         stop-color="#b30000"
         id="stop3276" />
      <stop
         offset="0.1094"
         stop-color="#a70000"
         id="stop3278" />
      <stop
         offset="0.1903"
         stop-color="#a70000"
         id="stop3280" />
      <stop
         offset="0.2794"
         stop-color="#b30000"
         id="stop3282" />
      <stop
         offset="0.3498"
         stop-color="#a70000"
         id="stop3284" />
      <stop
         offset="0.4407"
         stop-color="#712121"
         id="stop3286" />
      <stop
         offset="0.5004"
         stop-color="#a70000"
         id="stop3288" />
      <stop
         offset="0.5897"
         stop-color="#712121"
         id="stop3290" />
      <stop
         offset="0.6399"
         stop-color="#a70000"
         id="stop3292" />
      <stop
         offset="0.7293"
         stop-color="#712626"
         id="stop3294" />
      <stop
         offset="0.8204"
         stop-color="#a70000"
         id="stop3296" />
      <stop
         offset="0.8701"
         stop-color="#7e2929"
         id="stop3298" />
      <stop
         offset="1"
         stop-color="#670000"
         id="stop3300" />
    </linearGradient>
    <linearGradient
       id="grad_dp_004"
       gradientUnits="userSpaceOnUse"
       x1="450.037"
       y1="466.435"
       x2="450.077"
       y2="477.489">
      <stop
         offset="0"
         stop-color="white"
         id="stop3303" />
      <stop
         offset="0.3709"
         stop-color="#137feb"
         id="stop3305" />
      <stop
         offset="0.6248"
         stop-color="white"
         id="stop3307" />
      <stop
         offset="1"
         stop-color="#137feb"
         id="stop3309" />
    </linearGradient>
    <linearGradient
       id="grad_dp_005"
       gradientUnits="userSpaceOnUse"
       x1="69.376"
       y1="422.761"
       x2="1065.48"
       y2="449.74">
      <stop
         offset="0"
         stop-color="#272525"
         id="stop3312" />
      <stop
         offset="0.11"
         stop-color="black"
         id="stop3314" />
      <stop
         offset="0.1881"
         stop-color="#1e1e1e"
         id="stop3316" />
      <stop
         offset="0.28"
         stop-color="black"
         id="stop3318" />
      <stop
         offset="0.3495"
         stop-color="#272525"
         id="stop3320" />
      <stop
         offset="0.44"
         stop-color="black"
         id="stop3322" />
      <stop
         offset="0.4994"
         stop-color="#272525"
         id="stop3324" />
      <stop
         offset="0.59"
         stop-color="black"
         id="stop3326" />
      <stop
         offset="0.6407"
         stop-color="#272525"
         id="stop3328" />
      <stop
         offset="0.7316"
         stop-color="#272525"
         id="stop3330" />
      <stop
         offset="0.82"
         stop-color="black"
         id="stop3332" />
      <stop
         offset="0.8702"
         stop-color="#272525"
         id="stop3334" />
      <stop
         offset="1"
         stop-color="black"
         id="stop3336" />
    </linearGradient>
    <linearGradient
       id="grad_dp_006"
       gradientUnits="userSpaceOnUse"
       x1="800.871"
       y1="308.784"
       x2="793.509"
       y2="309.128">
      <stop
         offset="0"
         stop-color="white"
         id="stop3339" />
      <stop
         offset="1"
         stop-color="#7f7f7f"
         id="stop3341" />
    </linearGradient>
  </defs>
  <g
     id="dp_group001"
     transform="matrix(1,0,0,1,-56.7787,-271.168)">
    <path
       id="dp_path002"
       fill="url(#grad_dp_001)"
       fill-rule="evenodd"
       d="M 162.553,408.016 L 162.844,399.708 L 157.731,399.405 L 157.428,404.2 L 155.189,403.568 L 155.492,398.775 L 151.337,398.469 L 151.953,391.759 L 152.916,392.713 L 152.927,395.909 L 155.483,396.219 L 155.471,392.704 L 169.128,369.653 L 365.936,369.925 L 368.301,406.659 L 373.203,346.577 L 429.425,344.144 L 433.297,355.313 L 434.128,409.944 L 436.363,409.616 L 438.995,339.639 L 497.461,340.073 L 500.995,345.172 L 504.099,410.657 L 507.613,410.644 L 508.343,345.147 L 570.643,344.609 L 573.545,352.905 L 631.069,357.179 L 635.863,357.161 L 635.583,368.664 L 637.819,368.656 L 638.08,352.041 L 646.067,352.015 L 708.421,367.132 L 744.521,366.367 L 771.677,366.592 L 771.712,376.496 L 776.507,376.799 L 776.543,387.341 L 859.46,344.24 L 867.767,344.211 L 867.749,339.1 L 1001.62,340.549 L 1002.08,379.845 L 1073.65,380.873 L 1074.51,443.809 L 1071.95,443.819 L 1072.24,436.149 L 1070.33,436.156 L 1070.35,443.505 L 1068.44,443.831 L 1068.41,436.163 L 1047.32,436.236 L 1047.36,445.821 L 1044.48,445.832 L 1044.45,436.247 L 1043.49,436.251 L 1043.52,445.835 L 1040.65,445.845 L 1040.61,436.26 L 1001.64,436.396 L 198.724,427.379 Z " />
    <path
       id="dp_path003"
       fill="#636363"
       fill-rule="evenodd"
       d="M 1011.53,435.084 L 1073.84,434.867 L 1073.87,444.771 L 1011.57,444.988 Z " />
    <path
       id="dp_path004"
       fill="none"
       fill-rule="evenodd"
       stroke="#777777"
       stroke-width="2"
       d="M 229.992,415.448 L 753.967,418.091 L 753.995,426.079 L 762.62,426.049 L 762.593,418.381 L 780.485,418.319" />
    <path
       id="dp_path005"
       fill="none"
       fill-rule="evenodd"
       stroke="#777777"
       stroke-width="1.33333"
       d="M 866.428,418.339 L 1007.65,421.04" />
    <path
       id="dp_path006"
       fill="none"
       fill-rule="evenodd"
       stroke="#cbcbcb"
       stroke-width="1.33333"
       d="M 133.731,345.875 L 159.151,393.08" />
    <path
       id="dp_path007"
       fill="black"
       fill-rule="evenodd"
       d="M 857.824,333.064 L 858.089,318.047 L 843.713,318.097 L 843.765,332.795 Z " />
    <path
       id="dp_path008"
       fill="black"
       fill-rule="evenodd"
       d="M 842.089,310.435 L 856.785,310.384 L 853.888,303.684 L 853.86,295.697 L 851.623,295.705 L 848.116,297.953 L 848.139,304.663 L 844.944,304.675 L 842.388,304.683 Z " />
    <path
       id="dp_path009"
       fill="url(#grad_dp_002)"
       fill-rule="evenodd"
       d="M 836.909,290.964 L 843.639,296.692 L 842.367,298.293 L 842.435,318.101 L 833.171,318.455 L 833.099,297.687 Z " />
    <path
       id="dp_path010"
       fill="url(#grad_dp_003)"
       fill-rule="evenodd"
       d="M 93.544,453.668 L 92.9547,469.376 L 431.621,472.131 L 629.071,471.952 L 895.14,471.023 L 1049.73,469.461 L 1061.82,458.711 Z " />
    <path
       id="dp_path011"
       fill="url(#grad_dp_004)"
       fill-rule="evenodd"
       stroke="black"
       stroke-width="0.133333"
       d="M 82.884,469.011 C 87.7373,467.389 93.0813,466.032 106.864,469.183 C 116.644,467.319 125.167,465.071 144.097,465.991 C 158.744,464.684 167.711,465.292 172.164,467.424 C 181.657,466.496 197.871,467.036 219.619,468.789 C 226.396,466.761 232.671,464.019 244.364,468.957 C 247.528,466.327 257.753,467.899 267.835,469.385 C 270.341,467.907 275.86,467.34 287.22,468.553 C 295.807,468.084 304.396,468.079 312.987,468.972 C 321.996,467.725 331.011,467.916 340.029,469.388 C 350.831,467.848 362.213,468.597 373.704,469.781 C 382.717,469.788 391.731,469.109 400.749,470.707 C 404.111,469.216 409.197,469.436 415.289,470.656 C 422.091,470.352 428.892,469.925 435.696,470.331 C 448.789,469.388 461.885,469.86 474.985,470.959 C 482.077,470.797 489.407,470.873 497.18,471.391 C 504.32,470.664 511.463,470.425 518.607,471.061 C 522.261,470.583 525.919,470.651 529.579,471.533 C 533.301,470.653 537.499,470.245 542.587,470.723 C 550.633,469.363 556.397,470.3 561.721,471.676 C 577.62,470.672 593.521,470.216 609.425,471.255 C 623.575,469.791 637.188,469.679 649.987,471.623 C 665.035,470.575 680.087,470.637 695.139,470.956 C 697.428,469.484 701.169,469.168 706.872,470.404 C 717.752,469.488 728.639,469.929 739.527,471.055 C 744.648,469.58 749.363,469.759 753.812,471.005 C 768.093,469.811 782.381,469.912 796.667,470.091 C 809.349,469.219 821.903,468.871 833.915,470.725 C 842.669,469.473 851.425,468.909 860.189,470.38 C 866.753,468.331 875.636,467.927 886.971,469.264 C 894.791,468.328 902.613,468.077 910.44,469.183 C 919.064,468.627 927.651,468.007 936.971,468.836 C 941.731,468.561 946.492,468.375 951.255,468.785 C 959.927,468.081 968.599,467.781 977.275,468.44 C 982.629,467.748 987.985,467.541 993.348,468.893 C 997.935,467.348 1002.53,467.161 1007.12,468.336 C 1015.96,467.415 1024.8,466.78 1033.65,467.221 C 1039.86,466.78 1046.06,466.205 1052.27,467.157 C 1055.92,464.915 1059.58,465.693 1063.24,466.864 C 1066.38,467.197 1068.18,468.205 1068.61,469.907 L 983.921,472.499 L 833.668,473.023 L 409.431,472.973 L 87.736,470.524 Z " />
    <path
       id="dp_path012"
       fill="#dbdbdb"
       fill-rule="evenodd"
       d="M 129.853,404.305 L 130.341,324.712 L 133.656,324.7 L 133.171,404.549 Z " />
    <path
       id="dp_path013"
       fill="#dbdbdb"
       fill-rule="evenodd"
       d="M 125.984,319.115 L 126.28,330.848 L 130.872,331.087 L 130.865,329.045 L 129.079,328.797 L 127.771,319.617 Z " />
    <path
       id="dp_path014"
       fill="#a7a7a7"
       fill-rule="evenodd"
       d="M 128.379,347.423 L 131.184,347.413 L 130.544,382.873 L 128.757,382.88 L 128.749,380.84 L 127.475,380.844 L 127.704,373.445 L 123.624,373.715 L 123.616,371.419 L 127.187,371.407 L 127.18,369.62 L 128.456,369.616 Z " />
    <path
       id="dp_path015"
       fill="none"
       fill-rule="evenodd"
       stroke="#dbdbdb"
       stroke-width="1.33333"
       d="M 81.8893,403.452 L 128.885,346.145" />
    <path
       id="dp_path016"
       fill="none"
       fill-rule="evenodd"
       stroke="#cbcbcb"
       stroke-width="1.33333"
       d="M 97.9613,403.396 L 128.376,346.657" />
    <path
       id="dp_path017"
       fill="none"
       fill-rule="evenodd"
       stroke="#dbdbdb"
       stroke-width="1.33333"
       d="M 158.673,402.929 L 133.221,346.129" />
    <path
       id="dp_path018"
       fill="#777777"
       fill-rule="evenodd"
       d="M 131.105,324.709 L 131.344,320.116 L 132.619,320.112 L 132.636,324.959 Z " />
    <path
       id="dp_path019"
       fill="none"
       fill-rule="evenodd"
       stroke="white"
       stroke-width="2"
       d="M 256.187,420.957 L 256.152,411.008 L 260.233,410.993 L 260.269,421.197" />
    <path
       id="dp_path020"
       fill="none"
       fill-rule="evenodd"
       stroke="white"
       stroke-width="2"
       d="M 326.343,421.477 L 326.308,411.528 L 330.389,411.513 L 330.424,421.717" />
    <path
       id="dp_path021"
       fill="none"
       fill-rule="evenodd"
       stroke="white"
       stroke-width="2"
       d="M 395.733,422.256 L 395.699,412.307 L 399.78,412.293 L 399.816,422.497" />
    <path
       id="dp_path022"
       fill="none"
       fill-rule="evenodd"
       stroke="white"
       stroke-width="2"
       d="M 466.911,422.773 L 466.876,412.824 L 471.468,412.808 L 471.503,423.012" />
    <path
       id="dp_path023"
       fill="none"
       fill-rule="evenodd"
       stroke="white"
       stroke-width="2"
       d="M 357.211,421.369 L 357.176,411.42 L 368.908,411.379 L 368.944,421.583" />
    <path
       id="dp_path024"
       fill="none"
       fill-rule="evenodd"
       stroke="white"
       stroke-width="2"
       d="M 291.139,421.344 L 291.104,411.395 L 297.224,411.373 L 297.26,421.577" />
    <path
       id="dp_path025"
       fill="none"
       fill-rule="evenodd"
       stroke="white"
       stroke-width="2"
       d="M 535.787,422.788 L 535.752,412.839 L 539.833,412.824 L 539.869,423.028" />
    <path
       id="dp_path026"
       fill="none"
       fill-rule="evenodd"
       stroke="white"
       stroke-width="2"
       d="M 606.708,423.305 L 606.673,413.356 L 610.755,413.341 L 610.789,423.545" />
    <path
       id="dp_path027"
       fill="none"
       fill-rule="evenodd"
       stroke="white"
       stroke-width="2"
       d="M 638.341,423.704 L 638.307,413.755 L 648.252,413.72 L 648.288,423.924" />
    <path
       id="dp_path028"
       fill="none"
       fill-rule="evenodd"
       stroke="white"
       stroke-width="2"
       d="M 569.207,423.18 L 569.172,413.231 L 577.333,413.203 L 577.369,423.407" />
    <path
       id="dp_path029"
       fill="none"
       fill-rule="evenodd"
       stroke="white"
       stroke-width="2"
       d="M 498.541,422.405 L 498.507,412.456 L 508.963,412.42 L 508.999,422.624" />
    <path
       id="dp_path030"
       fill="none"
       fill-rule="evenodd"
       stroke="white"
       stroke-width="2"
       d="M 428.896,421.627 L 428.861,411.677 L 437.277,411.648 L 437.313,421.852" />
    <path
       id="dp_path031"
       fill="none"
       fill-rule="evenodd"
       stroke="white"
       stroke-width="2"
       d="M 782.732,424.396 L 782.837,381.619 L 800.695,381.556 L 800.339,425.689" />
    <path
       id="dp_path032"
       fill="#dbdbdb"
       fill-rule="evenodd"
       d="M 801.531,328.745 L 801.371,428.747 L 866.679,429.284 L 865.86,413.98 L 868.148,411.932 L 868.129,406.32 L 864.02,398.425 L 858.153,398.447 L 858.175,331.609 L 845.163,331.4 L 845.119,318.644 L 830.064,317.677 L 830.083,323.035 L 815.032,323.087 L 810.713,328.459 Z " />
    <path
       id="dp_path033"
       fill="none"
       fill-rule="evenodd"
       stroke="white"
       stroke-width="2.66667"
       d="M 243.928,417.173 L 243.951,423.549 L 250.072,423.528 L 250.051,417.549" />
    <path
       id="dp_path034"
       fill="none"
       fill-rule="evenodd"
       stroke="white"
       stroke-width="2.66667"
       d="M 263.572,417.615 L 263.595,423.992 L 276.092,423.948 L 276.071,417.969" />
    <path
       id="dp_path035"
       fill="none"
       fill-rule="evenodd"
       stroke="white"
       stroke-width="2.66667"
       d="M 298.779,418.003 L 298.8,424.379 L 311.297,424.336 L 311.276,418.357" />
    <path
       id="dp_path036"
       fill="none"
       fill-rule="evenodd"
       stroke="white"
       stroke-width="2.66667"
       d="M 337.807,417.356 L 337.829,423.732 L 344.459,423.709 L 344.439,417.731" />
    <path
       id="dp_path037"
       fill="none"
       fill-rule="evenodd"
       stroke="white"
       stroke-width="2.66667"
       d="M 382.96,417.199 L 382.983,423.575 L 388.847,423.555 L 388.825,417.576" />
    <path
       id="dp_path038"
       fill="none"
       fill-rule="evenodd"
       stroke="white"
       stroke-width="2.66667"
       d="M 402.864,418.404 L 402.885,424.78 L 415.125,424.737 L 415.104,418.759" />
    <path
       id="dp_path039"
       fill="none"
       fill-rule="evenodd"
       stroke="white"
       stroke-width="2.66667"
       d="M 440.621,419.292 L 440.644,425.668 L 452.884,425.625 L 452.863,419.647" />
    <path
       id="dp_path040"
       fill="none"
       fill-rule="evenodd"
       stroke="white"
       stroke-width="2.66667"
       d="M 522.507,418.495 L 522.529,424.872 L 529.157,424.848 L 529.137,418.869" />
    <path
       id="dp_path041"
       fill="none"
       fill-rule="evenodd"
       stroke="white"
       stroke-width="2.66667"
       d="M 543.172,419.188 L 543.195,425.565 L 555.18,425.523 L 555.159,419.544" />
    <path
       id="dp_path042"
       fill="none"
       fill-rule="evenodd"
       stroke="white"
       stroke-width="2.66667"
       d="M 580.165,419.824 L 580.188,426.201 L 592.173,426.159 L 592.152,420.18" />
    <path
       id="dp_path043"
       fill="none"
       fill-rule="evenodd"
       stroke="white"
       stroke-width="2.66667"
       d="M 617.665,419.693 L 617.688,426.071 L 623.551,426.049 L 623.531,420.071" />
    <path
       id="dp_path044"
       fill="none"
       fill-rule="evenodd"
       stroke="white"
       stroke-width="2.66667"
       d="M 916.657,422.731 L 916.68,429.108 L 922.544,429.088 L 922.523,423.109" />
    <path
       id="dp_path045"
       fill="none"
       fill-rule="evenodd"
       stroke="white"
       stroke-width="2.66667"
       d="M 948.548,423.385 L 948.571,429.761 L 960.301,429.721 L 960.28,423.743" />
    <path
       id="dp_path046"
       fill="none"
       fill-rule="evenodd"
       stroke="white"
       stroke-width="2"
       d="M 905.699,426.597 L 905.664,416.648 L 910.509,416.632 L 910.545,426.836" />
    <path
       id="dp_path047"
       fill="none"
       fill-rule="evenodd"
       stroke="white"
       stroke-width="2"
       d="M 936.568,427 L 936.533,417.051 L 945.969,417.019 L 946.004,427.223" />
    <path
       id="dp_path048"
       fill="none"
       fill-rule="evenodd"
       stroke="white"
       stroke-width="2"
       d="M 974.579,427.379 L 974.544,417.429 L 979.133,417.413 L 979.169,427.617" />
    <path
       id="dp_path049"
       fill="none"
       fill-rule="evenodd"
       stroke="white"
       stroke-width="2"
       d="M 1003.92,428.296 L 1003.89,418.347 L 1008.47,418.331 L 1008.51,428.535" />
    <path
       id="dp_path050"
       fill="none"
       fill-rule="evenodd"
       stroke="white"
       stroke-width="2"
       d="M 1012.14,444.34 L 1012.1,434.391 L 1016.44,434.375 L 1016.47,444.579" />
    <path
       id="dp_path051"
       fill="none"
       fill-rule="evenodd"
       stroke="white"
       stroke-width="2"
       d="M 1041.22,445.003 L 1041.19,435.055 L 1045.52,435.039 L 1045.56,445.243" />
    <path
       id="dp_path052"
       fill="white"
       fill-rule="evenodd"
       d="M 805.389,410.876 L 867.125,410.915 L 865.348,413.473 L 865.393,426.228 L 861.311,426.241 L 861.265,413.487 L 856.929,413.503 L 856.975,426.512 L 853.403,426.524 L 853.357,413.259 L 831.675,413.335 L 831.717,425.835 L 826.616,426.108 L 826.572,413.352 L 820.195,413.375 L 819.728,426.132 L 814.881,425.893 L 814.837,413.393 L 810.245,413.409 L 810.292,426.675 L 808.251,426.681 L 808.204,413.416 L 805.144,413.427 Z " />
    <path
       id="dp_path053"
       fill="black"
       fill-rule="evenodd"
       d="M 806.397,334.087 L 809.203,334.076 L 809.216,337.903 L 806.411,337.913 Z " />
    <path
       id="dp_path054"
       fill="black"
       fill-rule="evenodd"
       d="M 814.397,334.059 L 817.203,334.048 L 817.216,337.875 L 814.411,337.885 Z " />
    <path
       id="dp_path055"
       fill="black"
       fill-rule="evenodd"
       d="M 806.492,361.087 L 809.297,361.076 L 809.311,364.903 L 806.505,364.913 Z " />
    <path
       id="dp_path056"
       fill="black"
       fill-rule="evenodd"
       d="M 814.492,361.059 L 817.297,361.048 L 817.311,364.875 L 814.505,364.885 Z " />
    <path
       id="dp_path057"
       fill="black"
       fill-rule="evenodd"
       d="M 823.492,361.027 L 826.297,361.017 L 826.311,364.844 L 823.505,364.853 Z " />
    <path
       id="dp_path058"
       fill="black"
       fill-rule="evenodd"
       d="M 848.847,389.509 L 851.652,389.5 L 851.665,393.327 L 848.86,393.336 Z " />
    <path
       id="dp_path059"
       fill="black"
       fill-rule="evenodd"
       d="M 813.435,403.153 L 816.24,403.143 L 816.253,406.969 L 813.448,406.98 Z " />
    <path
       id="dp_path060"
       fill="black"
       fill-rule="evenodd"
       d="M 821.435,403.125 L 824.24,403.115 L 824.253,406.941 L 821.448,406.952 Z " />
    <g
       id="dp_group061">
      <path
         id="dp_path062"
         fill="#b7b7b7"
         fill-rule="evenodd"
         stroke="none"
         stroke-width="1.33333"
         d="M 832.46,346.241 L 853.379,346.168 L 853.417,357.392 L 832.5,357.465 Z " />
      <path
         id="dp_path063"
         fill="none"
         fill-rule="evenodd"
         stroke="#7a7a7a"
         stroke-width="1.33333"
         d="M 836.54,346.245 L 848.313,357.429" />
      <path
         id="dp_path064"
         fill="none"
         fill-rule="evenodd"
         stroke="#7a7a7a"
         stroke-width="1.33333"
         d="M 842.429,351.817 L 842.411,346.716 L 848.297,352.581 L 848.313,357.173" />
      <path
         id="dp_path065"
         fill="none"
         fill-rule="evenodd"
         stroke="#7a7a7a"
         stroke-width="1.33333"
         d="M 845.275,349.465 L 845.243,354.379" />
    </g>
    <g
       id="dp_group066">
      <path
         id="dp_path067"
         fill="#b7b7b7"
         fill-rule="evenodd"
         stroke="none"
         stroke-width="1.33333"
         d="M 832.509,360.241 L 853.428,360.168 L 853.467,371.392 L 832.548,371.464 Z " />
      <path
         id="dp_path068"
         fill="none"
         fill-rule="evenodd"
         stroke="#7a7a7a"
         stroke-width="1.33333"
         d="M 836.589,360.245 L 848.363,371.429" />
      <path
         id="dp_path069"
         fill="none"
         fill-rule="evenodd"
         stroke="#7a7a7a"
         stroke-width="1.33333"
         d="M 842.477,365.817 L 842.46,360.715 L 848.345,366.581 L 848.361,371.173" />
      <path
         id="dp_path070"
         fill="none"
         fill-rule="evenodd"
         stroke="#7a7a7a"
         stroke-width="1.33333"
         d="M 845.323,363.465 L 845.292,368.379" />
    </g>
    <g
       id="dp_group071">
      <path
         id="dp_path072"
         fill="#b7b7b7"
         fill-rule="evenodd"
         stroke="none"
         stroke-width="1.33333"
         d="M 832.556,373.496 L 853.473,373.424 L 853.513,384.648 L 832.595,384.72 Z " />
      <path
         id="dp_path073"
         fill="none"
         fill-rule="evenodd"
         stroke="#7a7a7a"
         stroke-width="1.33333"
         d="M 836.635,373.501 L 848.409,384.685" />
      <path
         id="dp_path074"
         fill="none"
         fill-rule="evenodd"
         stroke="#7a7a7a"
         stroke-width="1.33333"
         d="M 842.524,379.073 L 842.507,373.971 L 848.392,379.837 L 848.408,384.429" />
      <path
         id="dp_path075"
         fill="none"
         fill-rule="evenodd"
         stroke="#7a7a7a"
         stroke-width="1.33333"
         d="M 845.369,376.721 L 845.339,381.635" />
    </g>
    <path
       id="dp_path076"
       fill="#ff7f7f"
       fill-rule="evenodd"
       d="M 806.076,388.424 L 808.881,388.413 L 810.409,387.388 L 813.467,386.357 L 827.243,386.309 L 827.239,385.033 L 834.127,385.009 L 834.132,386.795 L 836.437,389.339 L 836.967,394.949 L 835.192,398.272 L 817.845,398.332 L 818.097,397.565 L 810.444,397.337 L 807.885,395.305 L 805.839,393.272 Z " />
    <path
       id="dp_path077"
       fill="#5b0000"
       fill-rule="evenodd"
       stroke="#5b0000"
       stroke-width="1.33333"
       d="M 808.892,391.22 L 834.657,391.131" />
    <path
       id="dp_path078"
       fill="none"
       fill-rule="evenodd"
       stroke="white"
       stroke-width="1.33333"
       d="M 843.612,398.497 L 863.765,398.427" />
    <path
       id="dp_path079"
       fill="none"
       fill-rule="evenodd"
       stroke="white"
       stroke-width="0.666667"
       d="M 805.9,410.619 L 805.883,406.027 L 836.751,406.175" />
    <path
       id="dp_path080"
       fill="none"
       fill-rule="evenodd"
       stroke="white"
       stroke-width="0.666667"
       d="M 837.023,411.276 L 836.724,398.521" />
    <path
       id="dp_path081"
       fill="none"
       fill-rule="evenodd"
       stroke="white"
       stroke-width="0.666667"
       d="M 842.896,412.531 L 842.848,398.756" />
    <path
       id="dp_path082"
       fill="white"
       fill-rule="evenodd"
       d="M 861.761,409.148 L 852.577,409.18 L 852.315,406.885 L 854.865,406.876 L 855.116,405.345 L 861.748,405.321 Z " />
    <path
       id="dp_path083"
       fill="none"
       fill-rule="evenodd"
       stroke="white"
       stroke-width="0.666667"
       d="M 846.459,410.223 L 846.441,405.375 L 851.776,398.724" />
    <path
       id="dp_path084"
       fill="#bbbbbb"
       fill-rule="evenodd"
       d="M 801.532,329 L 797.176,323.404 L 807.635,323.367 L 807.612,316.735 L 830.061,316.657 L 829.828,323.035 L 816.819,323.335 L 811.736,328.965 Z " />
    <path
       id="dp_path085"
       fill="red"
       fill-rule="evenodd"
       stroke="black"
       stroke-width="1.33333"
       d="M 794.863,318.565 L 805.321,318.528 L 807.356,316.48 L 807.379,323.113 L 796.409,323.152 Z " />
    <path
       id="dp_path086"
       fill="none"
       fill-rule="evenodd"
       stroke="whitesmoke"
       stroke-width="1.33333"
       d="M 826.536,330.189 L 822.753,342.957" />
    <path
       id="dp_path087"
       fill="none"
       fill-rule="evenodd"
       stroke="whitesmoke"
       stroke-width="1.33333"
       d="M 811.785,343.252 L 816.584,329.204" />
    <path
       id="dp_path088"
       fill="#a7a7a7"
       fill-rule="evenodd"
       d="M 810.715,328.713 L 810.729,333.051 L 816.077,330.225 L 827.047,330.188 L 831.391,332.213 L 831.365,324.815 L 829.828,323.035 L 816.563,323.081 Z " />
    <path
       id="dp_path089"
       fill="url(#grad_dp_005)"
       fill-rule="evenodd"
       stroke="black"
       stroke-width="0.133333"
       d="M 94.2373,456.124 L 1060.51,461.36 L 1075.68,442.764 L 1016.07,441.647 L 1014.03,426.423 C 860.857,425.959 707.92,424.461 555.427,421.952 L 253.059,420.469 C 238.065,420.063 224.339,415.289 222.708,403.981 C 167.239,403.273 112.353,402.464 56.8773,399.713 C 57.2493,400.7 57.8573,403.115 58.6787,404.299 C 70.4827,421.336 80.912,435.261 94.2373,456.124 Z " />
    <path
       id="dp_path096"
       fill="none"
       fill-rule="evenodd"
       stroke="white"
       stroke-width="2"
       d="M 872.279,426.459 L 872.244,416.509 L 877.091,416.492 L 877.125,426.696" />
    <path
       id="dp_path160"
       fill="#dbdbdb"
       fill-rule="evenodd"
       d="M 809.203,316.3 L 813.919,294.559 L 812.321,294.564 L 812.316,293.287 L 823.499,293.248 L 823.504,294.525 L 821.587,294.532 L 821.605,299.964 L 828.045,313.999 L 829.604,303.131 L 855.163,303.041 L 855.172,305.597 L 832.169,305.677 L 830.924,315.265 L 832.525,316.539 L 826.136,316.561 L 818.411,299.975 L 815.533,299.665 L 812.079,316.291 Z " />
    <path
       id="dp_path161"
       fill="none"
       fill-rule="evenodd"
       stroke="#dbdbdb"
       stroke-width="1.33333"
       d="M 843.669,305.317 L 831.887,316.541" />
    <path
       id="dp_path162"
       fill="url(#grad_dp_006)"
       fill-rule="evenodd"
       d="M 796.707,306.12 L 797.668,306.756 L 797.708,318.257 L 799.625,318.251 L 799.585,306.749 L 801.501,306.743 L 802.773,304.821 L 802.763,301.945 L 800.836,299.396 L 797.323,299.728 L 795.419,302.929 C 795.636,305.169 795.64,305.588 796.707,306.12 Z " />
    <path
       id="dp_path163"
       fill="#20a8fc"
       fill-rule="evenodd"
       d="M 842.743,318.419 L 857.132,318.369 L 857.105,310.703 L 842.409,310.753 Z " />
    <path
       id="dp_path164"
       fill="none"
       fill-rule="evenodd"
       stroke="black"
       stroke-width="1.33333"
       d="M 819.588,271.216 L 819.628,282.717" />
    <path
       id="dp_path165"
       fill="none"
       fill-rule="evenodd"
       stroke="black"
       stroke-width="1.33333"
       d="M 826.652,281.095 L 819.304,281.121" />
    <path
       id="dp_path166"
       fill="none"
       fill-rule="evenodd"
       stroke="black"
       stroke-width="1.33333"
       d="M 824.079,276.312 L 818.328,276.332" />
    <path
       id="dp_path167"
       fill="none"
       fill-rule="evenodd"
       stroke="black"
       stroke-width="1.33333"
       d="M 825.341,271.835 L 819.271,271.856" />
    <path
       id="dp_path168"
       fill="none"
       fill-rule="evenodd"
       stroke="black"
       stroke-width="1.33333"
       d="M 819.269,271.537 L 819.311,283.359" />
    <path
       id="dp_path169"
       fill="none"
       fill-rule="evenodd"
       stroke="black"
       stroke-width="1.33333"
       d="M 786.499,402.004 L 798.959,401.961" />
    <path
       id="dp_path170"
       fill="none"
       fill-rule="evenodd"
       stroke="black"
       stroke-width="1.33333"
       d="M 800.777,374.159 L 780.689,385.409 L 800.496,385.021" />
    <path
       id="dp_path171"
       fill="none"
       fill-rule="evenodd"
       stroke="#cbcbcb"
       stroke-width="1.33333"
       d="M 819.229,283.276 L 819.265,293.48" />
    <path
       id="dp_path172"
       fill="none"
       fill-rule="evenodd"
       stroke="#cbcbcb"
       stroke-width="1.33333"
       d="M 819.251,289.184 L 823.587,289.168" />
    <path
       id="dp_path173"
       fill="none"
       fill-rule="evenodd"
       stroke="#cbcbcb"
       stroke-width="1.33333"
       d="M 825.359,285.133 L 819.236,285.155" />
    <path
       id="dp_path174"
       fill="none"
       fill-rule="evenodd"
       stroke="#dbdbdb"
       stroke-width="1.33333"
       d="M 814.36,276.66 L 814.417,293.243" />
    <path
       id="dp_path175"
       fill="white"
       fill-rule="evenodd"
       d="M 810.024,277.185 L 817.677,277.159 L 817.671,275.373 L 810.019,275.4 Z " />
    <path
       id="dp_path176"
       fill="white"
       fill-rule="evenodd"
       d="M 810.555,282.796 L 816.933,282.773 L 816.927,280.988 L 810.548,281.011 Z " />
  </g>
  <g
     inkscape:groupmode="layer"
     id="layer1"
     inkscape:label="bay1"
     style="opacity:1" />
  <metadata
     id="metadata3529">
    <rdf:RDF>
      <cc:Work>
        <dc:format>image/svg+xml</dc:format>
        <dc:type
           rdf:resource="http://purl.org/dc/dcmitype/StillImage" />
        <cc:license
           rdf:resource="http://creativecommons.org/licenses/publicdomain/" />
        <dc:publisher>
          <cc:Agent
             rdf:about="http://openclipart.org/">
            <dc:title>Open Clip Art Library</dc:title>
          </cc:Agent>
        </dc:publisher>
        <dc:title></dc:title>
        <dc:date>2012-03-08T13:13:21</dc:date>
        <dc:description>Container ship</dc:description>
        <dc:source>http://openclipart.org/detail/168775/container-ship-by-jogdragoon</dc:source>
        <dc:creator>
          <cc:Agent>
            <dc:title>jogdragoon</dc:title>
          </cc:Agent>
        </dc:creator>
        <dc:subject>
          <rdf:Bag>
            <rdf:li>Containerschiff</rdf:li>
            <rdf:li>clip art</rdf:li>
            <rdf:li>clipart</rdf:li>
            <rdf:li>container</rdf:li>
            <rdf:li>drakoon</rdf:li>
            <rdf:li>jogdragoon</rdf:li>
            <rdf:li>schiff</rdf:li>
            <rdf:li>ship</rdf:li>
            <rdf:li>vessel</rdf:li>
          </rdf:Bag>
        </dc:subject>
      </cc:Work>
      <cc:License
         rdf:about="http://creativecommons.org/licenses/publicdomain/">
        <cc:permits
           rdf:resource="http://creativecommons.org/ns#Reproduction" />
        <cc:permits
           rdf:resource="http://creativecommons.org/ns#Distribution" />
        <cc:permits
           rdf:resource="http://creativecommons.org/ns#DerivativeWorks" />
      </cc:License>
    </rdf:RDF>
  </metadata>
</svg>
