<?xml version="1.0" encoding="UTF-8" standalone="no"?>
<!-- Created with Serif DrawPlus 12,0,1,21 (Sep  5, 14:29:02) (http://www.serif.com) -->
<svg xmlns="http://www.w3.org/2000/svg" xmlns:xlink="http://www.w3.org/1999/xlink" xmlns:svg="http://www.w3.org/2000/svg" xmlns:dc="http://purl.org/dc/elements/1.1/" xmlns:cc="http://web.resource.org/cc/" xmlns:rdf="http://www.w3.org/1999/02/22-rdf-syntax-ns#" version="1.1" width="1019.04" height="201.923">
  <defs>
    <linearGradient id="grad_dp_001" gradientUnits="userSpaceOnUse" x1="569.003" y1="333.059" x2="569.363" y2="436.005">
      <stop offset="0" stop-color="#5b5b5b"/>
      <stop offset="1" stop-color="black"/>
    </linearGradient>
    <linearGradient id="grad_dp_002" gradientUnits="userSpaceOnUse" x1="833.123" y1="304.661" x2="843.691" y2="304.624">
      <stop offset="0" stop-color="#272525"/>
      <stop offset="0.4837" stop-color="#8e5923"/>
      <stop offset="1" stop-color="white"/>
    </linearGradient>
    <linearGradient id="grad_dp_003" gradientUnits="userSpaceOnUse" x1="92.9347" y1="463.747" x2="1063.76" y2="460.357">
      <stop offset="0" stop-color="#b30000"/>
      <stop offset="0.1094" stop-color="#a70000"/>
      <stop offset="0.1903" stop-color="#a70000"/>
      <stop offset="0.2794" stop-color="#b30000"/>
      <stop offset="0.3498" stop-color="#a70000"/>
      <stop offset="0.4407" stop-color="#712121"/>
      <stop offset="0.5004" stop-color="#a70000"/>
      <stop offset="0.5897" stop-color="#712121"/>
      <stop offset="0.6399" stop-color="#a70000"/>
      <stop offset="0.7293" stop-color="#712626"/>
      <stop offset="0.8204" stop-color="#a70000"/>
      <stop offset="0.8701" stop-color="#7e2929"/>
      <stop offset="1" stop-color="#670000"/>
    </linearGradient>
    <linearGradient id="grad_dp_004" gradientUnits="userSpaceOnUse" x1="450.037" y1="466.435" x2="450.077" y2="477.489">
      <stop offset="0" stop-color="white"/>
      <stop offset="0.3709" stop-color="#137feb"/>
      <stop offset="0.6248" stop-color="white"/>
      <stop offset="1" stop-color="#137feb"/>
    </linearGradient>
    <linearGradient id="grad_dp_005" gradientUnits="userSpaceOnUse" x1="69.376" y1="422.761" x2="1065.48" y2="449.74">
      <stop offset="0" stop-color="#272525"/>
      <stop offset="0.11" stop-color="black"/>
      <stop offset="0.1881" stop-color="#1e1e1e"/>
      <stop offset="0.28" stop-color="black"/>
      <stop offset="0.3495" stop-color="#272525"/>
      <stop offset="0.44" stop-color="black"/>
      <stop offset="0.4994" stop-color="#272525"/>
      <stop offset="0.59" stop-color="black"/>
      <stop offset="0.6407" stop-color="#272525"/>
      <stop offset="0.7316" stop-color="#272525"/>
      <stop offset="0.82" stop-color="black"/>
      <stop offset="0.8702" stop-color="#272525"/>
      <stop offset="1" stop-color="black"/>
    </linearGradient>
    <linearGradient id="grad_dp_006" gradientUnits="userSpaceOnUse" x1="800.871" y1="308.784" x2="793.509" y2="309.128">
      <stop offset="0" stop-color="white"/>
      <stop offset="1" stop-color="#7f7f7f"/>
    </linearGradient>
  </defs>
  <g id="dp_group001" transform="matrix(1,0,0,1,-56.7787,-271.168)">
    <path id="dp_path002" fill="url(#grad_dp_001)" fill-rule="evenodd" d="M 162.553,408.016 L 162.844,399.708 L 157.731,399.405 L 157.428,404.2 L 155.189,403.568 L 155.492,398.775 L 151.337,398.469 L 151.953,391.759 L 152.916,392.713 L 152.927,395.909 L 155.483,396.219 L 155.471,392.704 L 169.128,369.653 L 365.936,369.925 L 368.301,406.659 L 373.203,346.577 L 429.425,344.144 L 433.297,355.313 L 434.128,409.944 L 436.363,409.616 L 438.995,339.639 L 497.461,340.073 L 500.995,345.172 L 504.099,410.657 L 507.613,410.644 L 508.343,345.147 L 570.643,344.609 L 573.545,352.905 L 631.069,357.179 L 635.863,357.161 L 635.583,368.664 L 637.819,368.656 L 638.08,352.041 L 646.067,352.015 L 708.421,367.132 L 744.521,366.367 L 771.677,366.592 L 771.712,376.496 L 776.507,376.799 L 776.543,387.341 L 859.46,344.24 L 867.767,344.211 L 867.749,339.1 L 1001.62,340.549 L 1002.08,379.845 L 1073.65,380.873 L 1074.51,443.809 L 1071.95,443.819 L 1072.24,436.149 L 1070.33,436.156 L 1070.35,443.505 L 1068.44,443.831 L 1068.41,436.163 L 1047.32,436.236 L 1047.36,445.821 L 1044.48,445.832 L 1044.45,436.247 L 1043.49,436.251 L 1043.52,445.835 L 1040.65,445.845 L 1040.61,436.26 L 1001.64,436.396 L 198.724,427.379 Z "/>
    <path id="dp_path003" fill="#636363" fill-rule="evenodd" d="M 1011.53,435.084 L 1073.84,434.867 L 1073.87,444.771 L 1011.57,444.988 Z "/>
    <path id="dp_path004" fill="none" fill-rule="evenodd" stroke="#777777" stroke-width="2" d="M 229.992,415.448 L 753.967,418.091 L 753.995,426.079 L 762.62,426.049 L 762.593,418.381 L 780.485,418.319"/>
    <path id="dp_path005" fill="none" fill-rule="evenodd" stroke="#777777" stroke-width="1.33333" d="M 866.428,418.339 L 1007.65,421.04"/>
    <path id="dp_path006" fill="none" fill-rule="evenodd" stroke="#cbcbcb" stroke-width="1.33333" d="M 133.731,345.875 L 159.151,393.08"/>
    <path id="dp_path007" fill="black" fill-rule="evenodd" d="M 857.824,333.064 L 858.089,318.047 L 843.713,318.097 L 843.765,332.795 Z "/>
    <path id="dp_path008" fill="black" fill-rule="evenodd" d="M 842.089,310.435 L 856.785,310.384 L 853.888,303.684 L 853.86,295.697 L 851.623,295.705 L 848.116,297.953 L 848.139,304.663 L 844.944,304.675 L 842.388,304.683 Z "/>
    <path id="dp_path009" fill="url(#grad_dp_002)" fill-rule="evenodd" d="M 836.909,290.964 L 843.639,296.692 L 842.367,298.293 L 842.435,318.101 L 833.171,318.455 L 833.099,297.687 Z "/>
    <path id="dp_path010" fill="url(#grad_dp_003)" fill-rule="evenodd" d="M 93.544,453.668 L 92.9547,469.376 L 431.621,472.131 L 629.071,471.952 L 895.14,471.023 L 1049.73,469.461 L 1061.82,458.711 Z "/>
    <path id="dp_path011" fill="url(#grad_dp_004)" fill-rule="evenodd" stroke="black" stroke-width="0.133333" d="M 82.884,469.011 C 87.7373,467.389 93.0813,466.032 106.864,469.183 C 116.644,467.319 125.167,465.071 144.097,465.991 C 158.744,464.684 167.711,465.292 172.164,467.424 C 181.657,466.496 197.871,467.036 219.619,468.789 C 226.396,466.761 232.671,464.019 244.364,468.957 C 247.528,466.327 257.753,467.899 267.835,469.385 C 270.341,467.907 275.86,467.34 287.22,468.553 C 295.807,468.084 304.396,468.079 312.987,468.972 C 321.996,467.725 331.011,467.916 340.029,469.388 C 350.831,467.848 362.213,468.597 373.704,469.781 C 382.717,469.788 391.731,469.109 400.749,470.707 C 404.111,469.216 409.197,469.436 415.289,470.656 C 422.091,470.352 428.892,469.925 435.696,470.331 C 448.789,469.388 461.885,469.86 474.985,470.959 C 482.077,470.797 489.407,470.873 497.18,471.391 C 504.32,470.664 511.463,470.425 518.607,471.061 C 522.261,470.583 525.919,470.651 529.579,471.533 C 533.301,470.653 537.499,470.245 542.587,470.723 C 550.633,469.363 556.397,470.3 561.721,471.676 C 577.62,470.672 593.521,470.216 609.425,471.255 C 623.575,469.791 637.188,469.679 649.987,471.623 C 665.035,470.575 680.087,470.637 695.139,470.956 C 697.428,469.484 701.169,469.168 706.872,470.404 C 717.752,469.488 728.639,469.929 739.527,471.055 C 744.648,469.58 749.363,469.759 753.812,471.005 C 768.093,469.811 782.381,469.912 796.667,470.091 C 809.349,469.219 821.903,468.871 833.915,470.725 C 842.669,469.473 851.425,468.909 860.189,470.38 C 866.753,468.331 875.636,467.927 886.971,469.264 C 894.791,468.328 902.613,468.077 910.44,469.183 C 919.064,468.627 927.651,468.007 936.971,468.836 C 941.731,468.561 946.492,468.375 951.255,468.785 C 959.927,468.081 968.599,467.781 977.275,468.44 C 982.629,467.748 987.985,467.541 993.348,468.893 C 997.935,467.348 1002.53,467.161 1007.12,468.336 C 1015.96,467.415 1024.8,466.78 1033.65,467.221 C 1039.86,466.78 1046.06,466.205 1052.27,467.157 C 1055.92,464.915 1059.58,465.693 1063.24,466.864 C 1066.38,467.197 1068.18,468.205 1068.61,469.907 L 983.921,472.499 L 833.668,473.023 L 409.431,472.973 L 87.736,470.524 Z "/>
    <path id="dp_path012" fill="#dbdbdb" fill-rule="evenodd" d="M 129.853,404.305 L 130.341,324.712 L 133.656,324.7 L 133.171,404.549 Z "/>
    <path id="dp_path013" fill="#dbdbdb" fill-rule="evenodd" d="M 125.984,319.115 L 126.28,330.848 L 130.872,331.087 L 130.865,329.045 L 129.079,328.797 L 127.771,319.617 Z "/>
    <path id="dp_path014" fill="#a7a7a7" fill-rule="evenodd" d="M 128.379,347.423 L 131.184,347.413 L 130.544,382.873 L 128.757,382.88 L 128.749,380.84 L 127.475,380.844 L 127.704,373.445 L 123.624,373.715 L 123.616,371.419 L 127.187,371.407 L 127.18,369.62 L 128.456,369.616 Z "/>
    <path id="dp_path015" fill="none" fill-rule="evenodd" stroke="#dbdbdb" stroke-width="1.33333" d="M 81.8893,403.452 L 128.885,346.145"/>
    <path id="dp_path016" fill="none" fill-rule="evenodd" stroke="#cbcbcb" stroke-width="1.33333" d="M 97.9613,403.396 L 128.376,346.657"/>
    <path id="dp_path017" fill="none" fill-rule="evenodd" stroke="#dbdbdb" stroke-width="1.33333" d="M 158.673,402.929 L 133.221,346.129"/>
    <path id="dp_path018" fill="#777777" fill-rule="evenodd" d="M 131.105,324.709 L 131.344,320.116 L 132.619,320.112 L 132.636,324.959 Z "/>
    <path id="dp_path019" fill="none" fill-rule="evenodd" stroke="white" stroke-width="2" d="M 256.187,420.957 L 256.152,411.008 L 260.233,410.993 L 260.269,421.197"/>
    <path id="dp_path020" fill="none" fill-rule="evenodd" stroke="white" stroke-width="2" d="M 326.343,421.477 L 326.308,411.528 L 330.389,411.513 L 330.424,421.717"/>
    <path id="dp_path021" fill="none" fill-rule="evenodd" stroke="white" stroke-width="2" d="M 395.733,422.256 L 395.699,412.307 L 399.78,412.293 L 399.816,422.497"/>
    <path id="dp_path022" fill="none" fill-rule="evenodd" stroke="white" stroke-width="2" d="M 466.911,422.773 L 466.876,412.824 L 471.468,412.808 L 471.503,423.012"/>
    <path id="dp_path023" fill="none" fill-rule="evenodd" stroke="white" stroke-width="2" d="M 357.211,421.369 L 357.176,411.42 L 368.908,411.379 L 368.944,421.583"/>
    <path id="dp_path024" fill="none" fill-rule="evenodd" stroke="white" stroke-width="2" d="M 291.139,421.344 L 291.104,411.395 L 297.224,411.373 L 297.26,421.577"/>
    <path id="dp_path025" fill="none" fill-rule="evenodd" stroke="white" stroke-width="2" d="M 535.787,422.788 L 535.752,412.839 L 539.833,412.824 L 539.869,423.028"/>
    <path id="dp_path026" fill="none" fill-rule="evenodd" stroke="white" stroke-width="2" d="M 606.708,423.305 L 606.673,413.356 L 610.755,413.341 L 610.789,423.545"/>
    <path id="dp_path027" fill="none" fill-rule="evenodd" stroke="white" stroke-width="2" d="M 638.341,423.704 L 638.307,413.755 L 648.252,413.72 L 648.288,423.924"/>
    <path id="dp_path028" fill="none" fill-rule="evenodd" stroke="white" stroke-width="2" d="M 569.207,423.18 L 569.172,413.231 L 577.333,413.203 L 577.369,423.407"/>
    <path id="dp_path029" fill="none" fill-rule="evenodd" stroke="white" stroke-width="2" d="M 498.541,422.405 L 498.507,412.456 L 508.963,412.42 L 508.999,422.624"/>
    <path id="dp_path030" fill="none" fill-rule="evenodd" stroke="white" stroke-width="2" d="M 428.896,421.627 L 428.861,411.677 L 437.277,411.648 L 437.313,421.852"/>
    <path id="dp_path031" fill="none" fill-rule="evenodd" stroke="white" stroke-width="2" d="M 782.732,424.396 L 782.837,381.619 L 800.695,381.556 L 800.339,425.689"/>
    <path id="dp_path032" fill="#dbdbdb" fill-rule="evenodd" d="M 801.531,328.745 L 801.371,428.747 L 866.679,429.284 L 865.86,413.98 L 868.148,411.932 L 868.129,406.32 L 864.02,398.425 L 858.153,398.447 L 858.175,331.609 L 845.163,331.4 L 845.119,318.644 L 830.064,317.677 L 830.083,323.035 L 815.032,323.087 L 810.713,328.459 Z "/>
    <path id="dp_path033" fill="none" fill-rule="evenodd" stroke="white" stroke-width="2.66667" d="M 243.928,417.173 L 243.951,423.549 L 250.072,423.528 L 250.051,417.549"/>
    <path id="dp_path034" fill="none" fill-rule="evenodd" stroke="white" stroke-width="2.66667" d="M 263.572,417.615 L 263.595,423.992 L 276.092,423.948 L 276.071,417.969"/>
    <path id="dp_path035" fill="none" fill-rule="evenodd" stroke="white" stroke-width="2.66667" d="M 298.779,418.003 L 298.8,424.379 L 311.297,424.336 L 311.276,418.357"/>
    <path id="dp_path036" fill="none" fill-rule="evenodd" stroke="white" stroke-width="2.66667" d="M 337.807,417.356 L 337.829,423.732 L 344.459,423.709 L 344.439,417.731"/>
    <path id="dp_path037" fill="none" fill-rule="evenodd" stroke="white" stroke-width="2.66667" d="M 382.96,417.199 L 382.983,423.575 L 388.847,423.555 L 388.825,417.576"/>
    <path id="dp_path038" fill="none" fill-rule="evenodd" stroke="white" stroke-width="2.66667" d="M 402.864,418.404 L 402.885,424.78 L 415.125,424.737 L 415.104,418.759"/>
    <path id="dp_path039" fill="none" fill-rule="evenodd" stroke="white" stroke-width="2.66667" d="M 440.621,419.292 L 440.644,425.668 L 452.884,425.625 L 452.863,419.647"/>
    <path id="dp_path040" fill="none" fill-rule="evenodd" stroke="white" stroke-width="2.66667" d="M 522.507,418.495 L 522.529,424.872 L 529.157,424.848 L 529.137,418.869"/>
    <path id="dp_path041" fill="none" fill-rule="evenodd" stroke="white" stroke-width="2.66667" d="M 543.172,419.188 L 543.195,425.565 L 555.18,425.523 L 555.159,419.544"/>
    <path id="dp_path042" fill="none" fill-rule="evenodd" stroke="white" stroke-width="2.66667" d="M 580.165,419.824 L 580.188,426.201 L 592.173,426.159 L 592.152,420.18"/>
    <path id="dp_path043" fill="none" fill-rule="evenodd" stroke="white" stroke-width="2.66667" d="M 617.665,419.693 L 617.688,426.071 L 623.551,426.049 L 623.531,420.071"/>
    <path id="dp_path044" fill="none" fill-rule="evenodd" stroke="white" stroke-width="2.66667" d="M 916.657,422.731 L 916.68,429.108 L 922.544,429.088 L 922.523,423.109"/>
    <path id="dp_path045" fill="none" fill-rule="evenodd" stroke="white" stroke-width="2.66667" d="M 948.548,423.385 L 948.571,429.761 L 960.301,429.721 L 960.28,423.743"/>
    <path id="dp_path046" fill="none" fill-rule="evenodd" stroke="white" stroke-width="2" d="M 905.699,426.597 L 905.664,416.648 L 910.509,416.632 L 910.545,426.836"/>
    <path id="dp_path047" fill="none" fill-rule="evenodd" stroke="white" stroke-width="2" d="M 936.568,427 L 936.533,417.051 L 945.969,417.019 L 946.004,427.223"/>
    <path id="dp_path048" fill="none" fill-rule="evenodd" stroke="white" stroke-width="2" d="M 974.579,427.379 L 974.544,417.429 L 979.133,417.413 L 979.169,427.617"/>
    <path id="dp_path049" fill="none" fill-rule="evenodd" stroke="white" stroke-width="2" d="M 1003.92,428.296 L 1003.89,418.347 L 1008.47,418.331 L 1008.51,428.535"/>
    <path id="dp_path050" fill="none" fill-rule="evenodd" stroke="white" stroke-width="2" d="M 1012.14,444.34 L 1012.1,434.391 L 1016.44,434.375 L 1016.47,444.579"/>
    <path id="dp_path051" fill="none" fill-rule="evenodd" stroke="white" stroke-width="2" d="M 1041.22,445.003 L 1041.19,435.055 L 1045.52,435.039 L 1045.56,445.243"/>
    <path id="dp_path052" fill="white" fill-rule="evenodd" d="M 805.389,410.876 L 867.125,410.915 L 865.348,413.473 L 865.393,426.228 L 861.311,426.241 L 861.265,413.487 L 856.929,413.503 L 856.975,426.512 L 853.403,426.524 L 853.357,413.259 L 831.675,413.335 L 831.717,425.835 L 826.616,426.108 L 826.572,413.352 L 820.195,413.375 L 819.728,426.132 L 814.881,425.893 L 814.837,413.393 L 810.245,413.409 L 810.292,426.675 L 808.251,426.681 L 808.204,413.416 L 805.144,413.427 Z "/>
    <path id="dp_path053" fill="black" fill-rule="evenodd" d="M 806.397,334.087 L 809.203,334.076 L 809.216,337.903 L 806.411,337.913 Z "/>
    <path id="dp_path054" fill="black" fill-rule="evenodd" d="M 814.397,334.059 L 817.203,334.048 L 817.216,337.875 L 814.411,337.885 Z "/>
    <path id="dp_path055" fill="black" fill-rule="evenodd" d="M 806.492,361.087 L 809.297,361.076 L 809.311,364.903 L 806.505,364.913 Z "/>
    <path id="dp_path056" fill="black" fill-rule="evenodd" d="M 814.492,361.059 L 817.297,361.048 L 817.311,364.875 L 814.505,364.885 Z "/>
    <path id="dp_path057" fill="black" fill-rule="evenodd" d="M 823.492,361.027 L 826.297,361.017 L 826.311,364.844 L 823.505,364.853 Z "/>
    <path id="dp_path058" fill="black" fill-rule="evenodd" d="M 848.847,389.509 L 851.652,389.5 L 851.665,393.327 L 848.86,393.336 Z "/>
    <path id="dp_path059" fill="black" fill-rule="evenodd" d="M 813.435,403.153 L 816.24,403.143 L 816.253,406.969 L 813.448,406.98 Z "/>
    <path id="dp_path060" fill="black" fill-rule="evenodd" d="M 821.435,403.125 L 824.24,403.115 L 824.253,406.941 L 821.448,406.952 Z "/>
    <g id="dp_group061">
      <path id="dp_path062" fill="#b7b7b7" fill-rule="evenodd" stroke="none" stroke-width="1.33333" d="M 832.46,346.241 L 853.379,346.168 L 853.417,357.392 L 832.5,357.465 Z "/>
      <path id="dp_path063" fill="none" fill-rule="evenodd" stroke="#7a7a7a" stroke-width="1.33333" d="M 836.54,346.245 L 848.313,357.429"/>
      <path id="dp_path064" fill="none" fill-rule="evenodd" stroke="#7a7a7a" stroke-width="1.33333" d="M 842.429,351.817 L 842.411,346.716 L 848.297,352.581 L 848.313,357.173"/>
      <path id="dp_path065" fill="none" fill-rule="evenodd" stroke="#7a7a7a" stroke-width="1.33333" d="M 845.275,349.465 L 845.243,354.379"/>
    </g>
    <g id="dp_group066">
      <path id="dp_path067" fill="#b7b7b7" fill-rule="evenodd" stroke="none" stroke-width="1.33333" d="M 832.509,360.241 L 853.428,360.168 L 853.467,371.392 L 832.548,371.464 Z "/>
      <path id="dp_path068" fill="none" fill-rule="evenodd" stroke="#7a7a7a" stroke-width="1.33333" d="M 836.589,360.245 L 848.363,371.429"/>
      <path id="dp_path069" fill="none" fill-rule="evenodd" stroke="#7a7a7a" stroke-width="1.33333" d="M 842.477,365.817 L 842.46,360.715 L 848.345,366.581 L 848.361,371.173"/>
      <path id="dp_path070" fill="none" fill-rule="evenodd" stroke="#7a7a7a" stroke-width="1.33333" d="M 845.323,363.465 L 845.292,368.379"/>
    </g>
    <g id="dp_group071">
      <path id="dp_path072" fill="#b7b7b7" fill-rule="evenodd" stroke="none" stroke-width="1.33333" d="M 832.556,373.496 L 853.473,373.424 L 853.513,384.648 L 832.595,384.72 Z "/>
      <path id="dp_path073" fill="none" fill-rule="evenodd" stroke="#7a7a7a" stroke-width="1.33333" d="M 836.635,373.501 L 848.409,384.685"/>
      <path id="dp_path074" fill="none" fill-rule="evenodd" stroke="#7a7a7a" stroke-width="1.33333" d="M 842.524,379.073 L 842.507,373.971 L 848.392,379.837 L 848.408,384.429"/>
      <path id="dp_path075" fill="none" fill-rule="evenodd" stroke="#7a7a7a" stroke-width="1.33333" d="M 845.369,376.721 L 845.339,381.635"/>
    </g>
    <path id="dp_path076" fill="#ff7f7f" fill-rule="evenodd" d="M 806.076,388.424 L 808.881,388.413 L 810.409,387.388 L 813.467,386.357 L 827.243,386.309 L 827.239,385.033 L 834.127,385.009 L 834.132,386.795 L 836.437,389.339 L 836.967,394.949 L 835.192,398.272 L 817.845,398.332 L 818.097,397.565 L 810.444,397.337 L 807.885,395.305 L 805.839,393.272 Z "/>
    <path id="dp_path077" fill="#5b0000" fill-rule="evenodd" stroke="#5b0000" stroke-width="1.33333" d="M 808.892,391.22 L 834.657,391.131"/>
    <path id="dp_path078" fill="none" fill-rule="evenodd" stroke="white" stroke-width="1.33333" d="M 843.612,398.497 L 863.765,398.427"/>
    <path id="dp_path079" fill="none" fill-rule="evenodd" stroke="white" stroke-width="0.666667" d="M 805.9,410.619 L 805.883,406.027 L 836.751,406.175"/>
    <path id="dp_path080" fill="none" fill-rule="evenodd" stroke="white" stroke-width="0.666667" d="M 837.023,411.276 L 836.724,398.521"/>
    <path id="dp_path081" fill="none" fill-rule="evenodd" stroke="white" stroke-width="0.666667" d="M 842.896,412.531 L 842.848,398.756"/>
    <path id="dp_path082" fill="white" fill-rule="evenodd" d="M 861.761,409.148 L 852.577,409.18 L 852.315,406.885 L 854.865,406.876 L 855.116,405.345 L 861.748,405.321 Z "/>
    <path id="dp_path083" fill="none" fill-rule="evenodd" stroke="white" stroke-width="0.666667" d="M 846.459,410.223 L 846.441,405.375 L 851.776,398.724"/>
    <path id="dp_path084" fill="#bbbbbb" fill-rule="evenodd" d="M 801.532,329 L 797.176,323.404 L 807.635,323.367 L 807.612,316.735 L 830.061,316.657 L 829.828,323.035 L 816.819,323.335 L 811.736,328.965 Z "/>
    <path id="dp_path085" fill="red" fill-rule="evenodd" stroke="black" stroke-width="1.33333" d="M 794.863,318.565 L 805.321,318.528 L 807.356,316.48 L 807.379,323.113 L 796.409,323.152 Z "/>
    <path id="dp_path086" fill="none" fill-rule="evenodd" stroke="whitesmoke" stroke-width="1.33333" d="M 826.536,330.189 L 822.753,342.957"/>
    <path id="dp_path087" fill="none" fill-rule="evenodd" stroke="whitesmoke" stroke-width="1.33333" d="M 811.785,343.252 L 816.584,329.204"/>
    <path id="dp_path088" fill="#a7a7a7" fill-rule="evenodd" d="M 810.715,328.713 L 810.729,333.051 L 816.077,330.225 L 827.047,330.188 L 831.391,332.213 L 831.365,324.815 L 829.828,323.035 L 816.563,323.081 Z "/>
    <path id="dp_path089" fill="url(#grad_dp_005)" fill-rule="evenodd" stroke="black" stroke-width="0.133333" d="M 94.2373,456.124 L 1060.51,461.36 L 1075.68,442.764 L 1016.07,441.647 L 1014.03,426.423 C 860.857,425.959 707.92,424.461 555.427,421.952 L 253.059,420.469 C 238.065,420.063 224.339,415.289 222.708,403.981 C 167.239,403.273 112.353,402.464 56.8773,399.713 C 57.2493,400.7 57.8573,403.115 58.6787,404.299 C 70.4827,421.336 80.912,435.261 94.2373,456.124 Z "/>
    <path id="dp_path090" fill="blue" fill-rule="evenodd" stroke="black" stroke-width="0.133333" d="M 876.533,402.205 L 906.127,402.103 L 906.172,415.112 L 876.579,415.215 Z "/>
    <path id="dp_path091" fill="#670000" fill-rule="evenodd" stroke="black" stroke-width="0.133333" d="M 876.487,388.94 L 906.08,388.837 L 906.125,401.847 L 876.533,401.949 Z "/>
    <path id="dp_path092" fill="blue" fill-rule="evenodd" stroke="black" stroke-width="0.133333" d="M 876.441,375.676 L 906.035,375.572 L 906.08,388.581 L 876.487,388.684 Z "/>
    <path id="dp_path093" fill="blue" fill-rule="evenodd" stroke="black" stroke-width="0.133333" d="M 876.395,362.391 L 905.988,362.287 L 906.033,375.296 L 876.44,375.4 Z "/>
    <path id="dp_path094" fill="#670000" fill-rule="evenodd" stroke="black" stroke-width="0.133333" d="M 876.348,349.103 L 905.941,348.999 L 905.987,362.008 L 876.393,362.112 Z "/>
    <path id="dp_path095" fill="#670000" fill-rule="evenodd" stroke="black" stroke-width="0.133333" d="M 876.303,335.88 L 905.895,335.776 L 905.94,348.785 L 876.348,348.889 Z "/>
    <path id="dp_path096" fill="none" fill-rule="evenodd" stroke="white" stroke-width="2" d="M 872.279,426.459 L 872.244,416.509 L 877.091,416.492 L 877.125,426.696"/>
    <path id="dp_path097" fill="blue" fill-rule="evenodd" stroke="black" stroke-width="0.133333" d="M 910.207,402.088 L 939.8,401.985 L 939.845,414.995 L 910.252,415.097 Z "/>
    <path id="dp_path098" fill="#670000" fill-rule="evenodd" stroke="black" stroke-width="0.133333" d="M 910.16,388.823 L 939.753,388.72 L 939.799,401.729 L 910.205,401.832 Z "/>
    <path id="dp_path099" fill="#670000" fill-rule="evenodd" stroke="black" stroke-width="0.133333" d="M 910.115,375.557 L 939.707,375.455 L 939.753,388.464 L 910.16,388.567 Z "/>
    <path id="dp_path100" fill="blue" fill-rule="evenodd" stroke="black" stroke-width="0.133333" d="M 910.068,362.272 L 939.661,362.169 L 939.707,375.179 L 910.113,375.281 Z "/>
    <path id="dp_path101" fill="blue" fill-rule="evenodd" stroke="black" stroke-width="0.133333" d="M 910.021,348.984 L 939.615,348.881 L 939.66,361.891 L 910.067,361.993 Z "/>
    <path id="dp_path102" fill="blue" fill-rule="evenodd" stroke="black" stroke-width="0.133333" d="M 909.975,335.763 L 939.568,335.659 L 939.613,348.668 L 910.02,348.771 Z "/>
    <path id="dp_path103" fill="#777777" fill-rule="evenodd" stroke="black" stroke-width="0.133333" d="M 945.411,401.969 L 1005.61,401.759 L 1005.66,415.024 L 945.457,415.235 Z "/>
    <path id="dp_path104" fill="#777777" fill-rule="evenodd" stroke="black" stroke-width="0.133333" d="M 945.364,388.449 L 1005.57,388.239 L 1005.61,401.504 L 945.411,401.715 Z "/>
    <path id="dp_path105" fill="#777777" fill-rule="evenodd" stroke="black" stroke-width="0.133333" d="M 945.317,375.184 L 1005.52,374.973 L 1005.57,388.239 L 945.364,388.449 Z "/>
    <path id="dp_path106" fill="#670000" fill-rule="evenodd" stroke="black" stroke-width="0.133333" d="M 945.272,361.919 L 1005.47,361.708 L 1005.52,374.973 L 945.317,375.184 Z "/>
    <path id="dp_path107" fill="#670000" fill-rule="evenodd" stroke="black" stroke-width="0.133333" d="M 945.225,348.653 L 1005.43,348.443 L 1005.47,361.708 L 945.272,361.919 Z "/>
    <path id="dp_path108" fill="#670000" fill-rule="evenodd" stroke="black" stroke-width="0.133333" d="M 945.179,335.389 L 1005.38,335.179 L 1005.43,348.444 L 945.225,348.655 Z "/>
    <path id="dp_path109" fill="#670000" fill-rule="evenodd" stroke="black" stroke-width="0.133333" d="M 1014.35,420.351 L 1074.56,420.141 L 1074.6,433.407 L 1014.4,433.616 Z "/>
    <path id="dp_path110" fill="#670000" fill-rule="evenodd" stroke="black" stroke-width="0.133333" d="M 1014.31,407.085 L 1074.51,406.876 L 1074.56,420.141 L 1014.35,420.351 Z "/>
    <path id="dp_path111" fill="#777777" fill-rule="evenodd" stroke="black" stroke-width="0.133333" d="M 1014.26,393.82 L 1074.46,393.611 L 1074.51,406.876 L 1014.31,407.085 Z "/>
    <path id="dp_path112" fill="#777777" fill-rule="evenodd" stroke="black" stroke-width="0.133333" d="M 1014.21,380.557 L 1074.42,380.347 L 1074.46,393.612 L 1014.26,393.821 Z "/>
    <path id="dp_path113" fill="blue" fill-rule="evenodd" stroke="black" stroke-width="0.133333" d="M 713.259,399.695 L 742.852,399.591 L 742.897,412.6 L 713.304,412.704 Z "/>
    <path id="dp_path114" fill="blue" fill-rule="evenodd" stroke="black" stroke-width="0.133333" d="M 713.212,386.407 L 742.805,386.303 L 742.851,399.312 L 713.257,399.416 Z "/>
    <path id="dp_path115" fill="blue" fill-rule="evenodd" stroke="black" stroke-width="0.133333" d="M 713.165,373.184 L 742.759,373.08 L 742.804,386.089 L 713.212,386.193 Z "/>
    <path id="dp_path116" fill="blue" fill-rule="evenodd" stroke="black" stroke-width="0.133333" d="M 746.932,399.577 L 776.525,399.473 L 776.571,412.483 L 746.977,412.587 Z "/>
    <path id="dp_path117" fill="blue" fill-rule="evenodd" stroke="black" stroke-width="0.133333" d="M 746.885,386.289 L 776.479,386.185 L 776.524,399.195 L 746.931,399.299 Z "/>
    <path id="dp_path118" fill="blue" fill-rule="evenodd" stroke="black" stroke-width="0.133333" d="M 746.839,373.067 L 776.432,372.963 L 776.477,385.972 L 746.884,386.076 Z "/>
    <path id="dp_path119" fill="#ff8000" fill-rule="evenodd" stroke="black" stroke-width="0.133333" d="M 649.483,399.432 L 709.685,399.221 L 709.732,412.487 L 649.528,412.696 Z "/>
    <path id="dp_path120" fill="#ff8000" fill-rule="evenodd" stroke="black" stroke-width="0.133333" d="M 649.435,385.912 L 709.639,385.701 L 709.685,398.967 L 649.481,399.177 Z "/>
    <path id="dp_path121" fill="#ff8000" fill-rule="evenodd" stroke="black" stroke-width="0.133333" d="M 649.388,372.647 L 709.592,372.436 L 709.639,385.701 L 649.435,385.912 Z "/>
    <path id="dp_path122" fill="#ff8000" fill-rule="evenodd" stroke="black" stroke-width="0.133333" d="M 649.343,359.381 L 709.545,359.171 L 709.592,372.436 L 649.388,372.647 Z "/>
    <path id="dp_path123" fill="#670000" fill-rule="evenodd" stroke="black" stroke-width="0.133333" d="M 649.296,346.116 L 709.5,345.905 L 709.545,359.171 L 649.343,359.381 Z "/>
    <path id="dp_path124" fill="#670000" fill-rule="evenodd" stroke="black" stroke-width="0.133333" d="M 649.249,332.852 L 709.453,332.641 L 709.5,345.907 L 649.296,346.117 Z "/>
    <path id="dp_path125" fill="#ff8000" fill-rule="evenodd" stroke="black" stroke-width="0.133333" d="M 577.796,398.681 L 638,398.472 L 638.047,411.737 L 577.843,411.947 Z "/>
    <path id="dp_path126" fill="#777777" fill-rule="evenodd" stroke="black" stroke-width="0.133333" d="M 577.749,385.161 L 637.953,384.952 L 637.999,398.217 L 577.796,398.427 Z "/>
    <path id="dp_path127" fill="#777777" fill-rule="evenodd" stroke="black" stroke-width="0.133333" d="M 577.703,371.896 L 637.907,371.687 L 637.953,384.952 L 577.749,385.161 Z "/>
    <path id="dp_path128" fill="#670000" fill-rule="evenodd" stroke="black" stroke-width="0.133333" d="M 577.656,358.631 L 637.86,358.421 L 637.907,371.687 L 577.703,371.896 Z "/>
    <path id="dp_path129" fill="#670000" fill-rule="evenodd" stroke="black" stroke-width="0.133333" d="M 577.611,345.365 L 637.813,345.156 L 637.86,358.421 L 577.656,358.631 Z "/>
    <path id="dp_path130" fill="#777777" fill-rule="evenodd" stroke="black" stroke-width="0.133333" d="M 509.68,397.92 L 569.884,397.709 L 569.929,410.975 L 509.727,411.184 Z "/>
    <path id="dp_path131" fill="#777777" fill-rule="evenodd" stroke="black" stroke-width="0.133333" d="M 509.633,384.4 L 569.836,384.189 L 569.883,397.455 L 509.679,397.665 Z "/>
    <path id="dp_path132" fill="#670000" fill-rule="evenodd" stroke="black" stroke-width="0.133333" d="M 509.587,371.135 L 569.791,370.924 L 569.836,384.189 L 509.633,384.4 Z "/>
    <path id="dp_path133" fill="#670000" fill-rule="evenodd" stroke="black" stroke-width="0.133333" d="M 509.54,357.869 L 569.744,357.659 L 569.791,370.924 L 509.587,371.135 Z "/>
    <path id="dp_path134" fill="#670000" fill-rule="evenodd" stroke="black" stroke-width="0.133333" d="M 509.493,344.604 L 569.697,344.393 L 569.744,357.659 L 509.54,357.869 Z "/>
    <path id="dp_path135" fill="#670000" fill-rule="evenodd" stroke="black" stroke-width="0.133333" d="M 436.531,343.86 L 496.735,343.649 L 496.78,356.915 L 436.577,357.125 Z "/>
    <path id="dp_path136" fill="#ff8000" fill-rule="evenodd" stroke="black" stroke-width="0.133333" d="M 436.719,397.135 L 496.921,396.924 L 496.968,410.189 L 436.764,410.399 Z "/>
    <path id="dp_path137" fill="#ff8000" fill-rule="evenodd" stroke="black" stroke-width="0.133333" d="M 436.671,383.615 L 496.875,383.404 L 496.921,396.669 L 436.717,396.88 Z "/>
    <path id="dp_path138" fill="#ff8000" fill-rule="evenodd" stroke="black" stroke-width="0.133333" d="M 436.624,370.349 L 496.828,370.139 L 496.875,383.404 L 436.671,383.615 Z "/>
    <path id="dp_path139" fill="#670000" fill-rule="evenodd" stroke="black" stroke-width="0.133333" d="M 436.579,357.084 L 496.781,356.873 L 496.828,370.139 L 436.624,370.349 Z "/>
    <path id="dp_path140" fill="#670000" fill-rule="evenodd" stroke="black" stroke-width="0.133333" d="M 369.879,396.836 L 430.083,396.627 L 430.129,409.892 L 369.925,410.101 Z "/>
    <path id="dp_path141" fill="#ff8000" fill-rule="evenodd" stroke="black" stroke-width="0.133333" d="M 369.832,383.317 L 430.036,383.107 L 430.081,396.372 L 369.879,396.581 Z "/>
    <path id="dp_path142" fill="#670000" fill-rule="evenodd" stroke="black" stroke-width="0.133333" d="M 369.785,370.052 L 429.989,369.841 L 430.036,383.107 L 369.832,383.317 Z "/>
    <path id="dp_path143" fill="#670000" fill-rule="evenodd" stroke="black" stroke-width="0.133333" d="M 369.74,356.787 L 429.943,356.576 L 429.989,369.841 L 369.785,370.052 Z "/>
    <path id="dp_path144" fill="#ff8000" fill-rule="evenodd" stroke="black" stroke-width="0.133333" d="M 369.693,343.521 L 429.897,343.311 L 429.943,356.576 L 369.74,356.787 Z "/>
    <path id="dp_path145" fill="#670000" fill-rule="evenodd" stroke="black" stroke-width="0.133333" d="M 296.919,396.58 L 357.123,396.371 L 357.169,409.636 L 296.965,409.845 Z "/>
    <path id="dp_path146" fill="#ff8000" fill-rule="evenodd" stroke="black" stroke-width="0.133333" d="M 296.872,383.061 L 357.076,382.851 L 357.121,396.116 L 296.919,396.327 Z "/>
    <path id="dp_path147" fill="#ff8000" fill-rule="evenodd" stroke="black" stroke-width="0.133333" d="M 296.825,369.796 L 357.029,369.585 L 357.076,382.851 L 296.872,383.061 Z "/>
    <path id="dp_path148" fill="#777777" fill-rule="evenodd" stroke="black" stroke-width="0.133333" d="M 296.78,356.531 L 356.983,356.32 L 357.029,369.585 L 296.825,369.796 Z "/>
    <path id="dp_path149" fill="#777777" fill-rule="evenodd" stroke="black" stroke-width="0.133333" d="M 296.733,343.265 L 356.937,343.055 L 356.983,356.32 L 296.78,356.531 Z "/>
    <path id="dp_path150" fill="#670000" fill-rule="evenodd" stroke="black" stroke-width="0.133333" d="M 229.823,395.284 L 290.025,395.075 L 290.072,408.339 L 229.868,408.549 Z "/>
    <path id="dp_path151" fill="#670000" fill-rule="evenodd" stroke="black" stroke-width="0.133333" d="M 229.775,381.764 L 289.979,381.555 L 290.025,394.82 L 229.821,395.029 Z "/>
    <path id="dp_path152" fill="#670000" fill-rule="evenodd" stroke="black" stroke-width="0.133333" d="M 229.729,368.499 L 289.932,368.289 L 289.979,381.555 L 229.775,381.764 Z "/>
    <path id="dp_path153" fill="#670000" fill-rule="evenodd" stroke="black" stroke-width="0.133333" d="M 229.683,355.233 L 289.887,355.024 L 289.932,368.289 L 229.729,368.499 Z "/>
    <path id="dp_path154" fill="#670000" fill-rule="evenodd" stroke="black" stroke-width="0.133333" d="M 158.311,383.52 L 187.904,383.416 L 187.949,396.425 L 158.356,396.529 Z "/>
    <path id="dp_path155" fill="#670000" fill-rule="evenodd" stroke="black" stroke-width="0.133333" d="M 158.264,370.232 L 187.857,370.128 L 187.903,383.137 L 158.309,383.241 Z "/>
    <path id="dp_path156" fill="blue" fill-rule="evenodd" stroke="black" stroke-width="0.133333" d="M 158.219,357.009 L 187.811,356.905 L 187.857,369.915 L 158.264,370.019 Z "/>
    <path id="dp_path157" fill="blue" fill-rule="evenodd" stroke="black" stroke-width="0.133333" d="M 189.984,383.409 L 219.577,383.305 L 219.623,396.315 L 190.029,396.419 Z "/>
    <path id="dp_path158" fill="#670000" fill-rule="evenodd" stroke="black" stroke-width="0.133333" d="M 189.937,370.121 L 219.531,370.017 L 219.576,383.027 L 189.983,383.131 Z "/>
    <path id="dp_path159" fill="blue" fill-rule="evenodd" stroke="black" stroke-width="0.133333" d="M 189.891,356.899 L 219.484,356.795 L 219.529,369.804 L 189.936,369.908 Z "/>
    <path id="dp_path160" fill="#dbdbdb" fill-rule="evenodd" d="M 809.203,316.3 L 813.919,294.559 L 812.321,294.564 L 812.316,293.287 L 823.499,293.248 L 823.504,294.525 L 821.587,294.532 L 821.605,299.964 L 828.045,313.999 L 829.604,303.131 L 855.163,303.041 L 855.172,305.597 L 832.169,305.677 L 830.924,315.265 L 832.525,316.539 L 826.136,316.561 L 818.411,299.975 L 815.533,299.665 L 812.079,316.291 Z "/>
    <path id="dp_path161" fill="none" fill-rule="evenodd" stroke="#dbdbdb" stroke-width="1.33333" d="M 843.669,305.317 L 831.887,316.541"/>
    <path id="dp_path162" fill="url(#grad_dp_006)" fill-rule="evenodd" d="M 796.707,306.12 L 797.668,306.756 L 797.708,318.257 L 799.625,318.251 L 799.585,306.749 L 801.501,306.743 L 802.773,304.821 L 802.763,301.945 L 800.836,299.396 L 797.323,299.728 L 795.419,302.929 C 795.636,305.169 795.64,305.588 796.707,306.12 Z "/>
    <path id="dp_path163" fill="#20a8fc" fill-rule="evenodd" d="M 842.743,318.419 L 857.132,318.369 L 857.105,310.703 L 842.409,310.753 Z "/>
    <path id="dp_path164" fill="none" fill-rule="evenodd" stroke="black" stroke-width="1.33333" d="M 819.588,271.216 L 819.628,282.717"/>
    <path id="dp_path165" fill="none" fill-rule="evenodd" stroke="black" stroke-width="1.33333" d="M 826.652,281.095 L 819.304,281.121"/>
    <path id="dp_path166" fill="none" fill-rule="evenodd" stroke="black" stroke-width="1.33333" d="M 824.079,276.312 L 818.328,276.332"/>
    <path id="dp_path167" fill="none" fill-rule="evenodd" stroke="black" stroke-width="1.33333" d="M 825.341,271.835 L 819.271,271.856"/>
    <path id="dp_path168" fill="none" fill-rule="evenodd" stroke="black" stroke-width="1.33333" d="M 819.269,271.537 L 819.311,283.359"/>
    <path id="dp_path169" fill="none" fill-rule="evenodd" stroke="black" stroke-width="1.33333" d="M 786.499,402.004 L 798.959,401.961"/>
    <path id="dp_path170" fill="none" fill-rule="evenodd" stroke="black" stroke-width="1.33333" d="M 800.777,374.159 L 780.689,385.409 L 800.496,385.021"/>
    <path id="dp_path171" fill="none" fill-rule="evenodd" stroke="#cbcbcb" stroke-width="1.33333" d="M 819.229,283.276 L 819.265,293.48"/>
    <path id="dp_path172" fill="none" fill-rule="evenodd" stroke="#cbcbcb" stroke-width="1.33333" d="M 819.251,289.184 L 823.587,289.168"/>
    <path id="dp_path173" fill="none" fill-rule="evenodd" stroke="#cbcbcb" stroke-width="1.33333" d="M 825.359,285.133 L 819.236,285.155"/>
    <path id="dp_path174" fill="none" fill-rule="evenodd" stroke="#dbdbdb" stroke-width="1.33333" d="M 814.36,276.66 L 814.417,293.243"/>
    <path id="dp_path175" fill="white" fill-rule="evenodd" d="M 810.024,277.185 L 817.677,277.159 L 817.671,275.373 L 810.019,275.4 Z "/>
    <path id="dp_path176" fill="white" fill-rule="evenodd" d="M 810.555,282.796 L 816.933,282.773 L 816.927,280.988 L 810.548,281.011 Z "/>
    <path id="dp_path177" fill="white" fill-rule="evenodd" d="M 110.499,414.765 L 109.716,414.725 L 106.839,410.731 L 107.945,414.636 L 107.207,414.599 L 102.557,410.513 L 105.435,414.508 L 104.657,414.468 L 101.277,409.775 L 102.511,409.837 L 107.013,413.836 L 105.885,410.008 L 107.119,410.071 Z "/>
    <path id="dp_path178" fill="white" fill-rule="evenodd" d="M 114.28,415.035 C 113.839,415.013 113.427,414.953 113.041,414.857 C 112.659,414.761 112.309,414.639 111.989,414.487 C 111.669,414.335 111.385,414.159 111.132,413.957 C 110.88,413.757 110.667,413.544 110.489,413.312 L 111.283,413.353 C 111.432,413.532 111.604,413.688 111.8,413.823 C 111.992,413.955 112.201,414.069 112.425,414.16 C 112.648,414.251 112.88,414.324 113.121,414.375 C 113.363,414.427 113.603,414.459 113.841,414.471 C 114.071,414.483 114.265,414.475 114.427,414.448 C 114.589,414.42 114.711,414.375 114.796,414.312 C 114.879,414.249 114.924,414.169 114.927,414.076 C 114.932,413.984 114.889,413.875 114.801,413.753 C 114.705,413.62 114.593,413.508 114.463,413.417 C 114.331,413.324 114.164,413.24 113.963,413.165 C 113.76,413.089 113.517,413.02 113.231,412.955 C 112.947,412.889 112.604,412.817 112.205,412.741 C 111.811,412.671 111.456,412.585 111.143,412.492 C 110.829,412.399 110.56,412.297 110.333,412.188 C 109.883,411.973 109.533,411.695 109.289,411.356 C 109.152,411.164 109.079,410.993 109.072,410.839 C 109.064,410.685 109.115,410.556 109.224,410.451 C 109.335,410.345 109.5,410.268 109.725,410.217 C 109.951,410.165 110.228,410.149 110.557,410.165 C 110.905,410.184 111.245,410.231 111.577,410.308 C 111.909,410.385 112.221,410.489 112.512,410.62 C 112.805,410.749 113.075,410.904 113.32,411.087 C 113.565,411.267 113.775,411.469 113.947,411.695 L 113.148,411.655 C 112.657,411.083 111.939,410.773 110.993,410.727 C 110.533,410.703 110.225,410.751 110.069,410.868 C 109.912,410.984 109.912,411.151 110.068,411.368 C 110.139,411.467 110.224,411.553 110.319,411.625 C 110.416,411.699 110.539,411.767 110.685,411.827 C 110.835,411.887 111.017,411.944 111.233,411.997 C 111.449,412.049 111.713,412.107 112.025,412.168 C 112.636,412.283 113.139,412.395 113.536,412.505 C 113.727,412.557 113.919,412.62 114.111,412.697 C 114.304,412.772 114.489,412.863 114.667,412.964 C 114.847,413.067 115.012,413.183 115.167,413.312 C 115.321,413.44 115.455,413.585 115.569,413.744 C 115.715,413.945 115.795,414.131 115.804,414.296 C 115.815,414.461 115.765,414.601 115.653,414.717 C 115.54,414.833 115.369,414.919 115.139,414.976 C 114.907,415.032 114.621,415.052 114.28,415.035 Z "/>
    <path id="dp_path179" fill="white" fill-rule="evenodd" d="M 120.057,415.328 C 119.615,415.305 119.201,415.247 118.819,415.151 C 118.436,415.055 118.085,414.931 117.765,414.779 C 117.447,414.627 117.161,414.451 116.909,414.251 C 116.656,414.051 116.443,413.835 116.267,413.605 L 117.059,413.645 C 117.209,413.823 117.381,413.98 117.576,414.113 C 117.769,414.248 117.979,414.36 118.201,414.453 C 118.425,414.544 118.657,414.617 118.897,414.668 C 119.14,414.719 119.38,414.752 119.619,414.764 C 119.847,414.775 120.041,414.768 120.203,414.74 C 120.365,414.713 120.488,414.668 120.572,414.605 C 120.656,414.541 120.699,414.463 120.704,414.369 C 120.708,414.276 120.667,414.167 120.577,414.045 C 120.483,413.913 120.371,413.801 120.237,413.708 C 120.108,413.617 119.941,413.533 119.739,413.459 C 119.537,413.383 119.292,413.313 119.008,413.248 C 118.723,413.18 118.381,413.111 117.981,413.035 C 117.587,412.961 117.232,412.879 116.92,412.785 C 116.605,412.692 116.337,412.591 116.111,412.48 C 115.66,412.265 115.311,411.988 115.067,411.649 C 114.929,411.457 114.856,411.285 114.848,411.132 C 114.84,410.979 114.892,410.848 115.001,410.743 C 115.109,410.639 115.277,410.56 115.503,410.509 C 115.728,410.459 116.005,410.443 116.335,410.459 C 116.683,410.476 117.021,410.524 117.353,410.601 C 117.687,410.679 117.997,410.781 118.289,410.912 C 118.581,411.041 118.851,411.197 119.096,411.377 C 119.343,411.56 119.551,411.763 119.724,411.988 L 118.925,411.947 C 118.433,411.376 117.716,411.067 116.769,411.019 C 116.309,410.996 116.001,411.043 115.847,411.16 C 115.689,411.276 115.689,411.444 115.844,411.66 C 115.915,411.759 116,411.845 116.096,411.917 C 116.192,411.992 116.315,412.06 116.463,412.119 C 116.611,412.18 116.793,412.235 117.009,412.289 C 117.227,412.341 117.491,412.4 117.803,412.46 C 118.412,412.575 118.916,412.688 119.313,412.797 C 119.503,412.849 119.695,412.913 119.888,412.988 C 120.08,413.065 120.265,413.153 120.444,413.256 C 120.623,413.359 120.789,413.475 120.943,413.605 C 121.099,413.733 121.232,413.877 121.345,414.036 C 121.492,414.239 121.569,414.423 121.581,414.588 C 121.592,414.753 121.543,414.895 121.431,415.009 C 121.317,415.127 121.145,415.212 120.916,415.269 C 120.683,415.325 120.397,415.345 120.057,415.328 Z "/>
    <path id="dp_path180" fill="white" fill-rule="evenodd" d="M 132.004,415.855 L 131.076,415.807 L 129.329,414.343 L 126.727,414.209 L 127.065,415.604 L 126.196,415.56 L 125.205,410.987 L 126.092,411.032 Z M 128.731,413.836 L 126.069,411.604 L 126.595,413.729 Z "/>
    <path id="dp_path181" fill="white" fill-rule="evenodd" d="M 137.857,416.151 L 136.967,416.107 L 135.483,414.824 C 135.349,414.712 135.205,414.605 135.049,414.509 C 134.892,414.411 134.732,414.327 134.567,414.252 C 134.401,414.18 134.233,414.121 134.063,414.077 C 133.892,414.033 133.729,414.007 133.575,414 L 132.053,413.923 L 133.499,415.931 L 132.679,415.888 L 129.299,411.195 L 132.048,411.335 C 132.287,411.347 132.511,411.364 132.72,411.392 C 132.929,411.417 133.124,411.453 133.301,411.496 C 133.479,411.54 133.659,411.603 133.841,411.688 C 134.024,411.772 134.201,411.871 134.369,411.983 C 134.537,412.096 134.695,412.22 134.839,412.352 C 134.983,412.484 135.105,412.62 135.205,412.76 C 135.321,412.921 135.397,413.069 135.429,413.203 C 135.464,413.337 135.46,413.455 135.416,413.555 C 135.373,413.655 135.293,413.737 135.173,413.8 C 135.053,413.865 134.9,413.912 134.717,413.943 C 135.231,414.073 135.761,414.373 136.313,414.841 Z M 131.652,413.364 L 133.488,413.457 C 133.745,413.469 133.956,413.467 134.12,413.447 C 134.284,413.428 134.401,413.388 134.473,413.329 C 134.543,413.272 134.569,413.192 134.549,413.091 C 134.528,412.989 134.464,412.865 134.359,412.716 C 133.975,412.184 133.337,411.893 132.451,411.848 L 130.488,411.749 Z "/>
    <path id="dp_path182" fill="white" fill-rule="evenodd" d="M 144.027,416.463 L 142.945,416.408 L 139.052,413.956 L 138.6,414.621 L 139.771,416.247 L 138.952,416.205 L 135.571,411.512 L 136.391,411.553 L 138.068,413.883 L 139.423,411.707 L 140.531,411.763 L 139.316,413.559 Z "/>
    <path id="dp_path183" fill="white" fill-rule="evenodd" d="M 149.831,416.757 L 148.9,416.709 L 147.155,415.245 L 144.551,415.113 L 144.891,416.507 L 144.021,416.463 L 143.032,411.891 L 143.917,411.935 Z M 146.555,414.74 L 143.895,412.508 L 144.42,414.631 Z "/>
    <path id="dp_path184" fill="white" fill-rule="evenodd" d="M 147.124,412.097 L 149.097,412.197 C 151.204,412.304 152.815,413.131 153.929,414.677 C 155.068,416.26 154.584,416.999 152.477,416.891 L 150.505,416.791 Z M 150.921,416.275 L 152.052,416.332 C 152.959,416.377 153.46,416.252 153.559,415.952 C 153.66,415.655 153.5,415.215 153.081,414.635 C 152.676,414.072 152.2,413.629 151.656,413.308 C 151.107,412.983 150.379,412.797 149.473,412.751 L 148.344,412.693 Z "/>
    <path id="dp_path185" fill="white" fill-rule="evenodd" d="M 157.708,417.156 L 156.881,417.115 L 153.5,412.42 L 154.325,412.463 Z "/>
    <path id="dp_path186" fill="white" fill-rule="evenodd" d="M 164.295,417.489 L 163.364,417.444 L 161.619,415.977 L 159.016,415.845 L 159.356,417.24 L 158.485,417.195 L 157.496,412.623 L 158.381,412.668 Z M 161.019,415.473 L 158.359,413.24 L 158.884,415.364 Z "/>
  </g>
  <metadata>
    <rdf:RDF>
      <cc:Work>
        <dc:format>image/svg+xml</dc:format>
        <dc:type rdf:resource="http://purl.org/dc/dcmitype/StillImage"/>
        <cc:license rdf:resource="http://creativecommons.org/licenses/publicdomain/"/>
        <dc:publisher>
          <cc:Agent rdf:about="http://openclipart.org/">
            <dc:title>Open Clip Art Library</dc:title>
          </cc:Agent>
        </dc:publisher>
        <dc:title>Container ship</dc:title>
        <dc:date>2012-03-08T13:13:21</dc:date>
        <dc:description>Container ship</dc:description>
        <dc:source>http://openclipart.org/detail/168775/container-ship-by-jogdragoon</dc:source>
        <dc:creator>
          <cc:Agent>
            <dc:title>jogdragoon</dc:title>
          </cc:Agent>
        </dc:creator>
        <dc:subject>
          <rdf:Bag>
            <rdf:li>Containerschiff</rdf:li>
            <rdf:li>clip art</rdf:li>
            <rdf:li>clipart</rdf:li>
            <rdf:li>container</rdf:li>
            <rdf:li>drakoon</rdf:li>
            <rdf:li>jogdragoon</rdf:li>
            <rdf:li>schiff</rdf:li>
            <rdf:li>ship</rdf:li>
            <rdf:li>vessel</rdf:li>
          </rdf:Bag>
        </dc:subject>
      </cc:Work>
      <cc:License rdf:about="http://creativecommons.org/licenses/publicdomain/">
        <cc:permits rdf:resource="http://creativecommons.org/ns#Reproduction"/>
        <cc:permits rdf:resource="http://creativecommons.org/ns#Distribution"/>
        <cc:permits rdf:resource="http://creativecommons.org/ns#DerivativeWorks"/>
      </cc:License>
    </rdf:RDF>
  </metadata>
</svg>