<?xml version="1.0" encoding="UTF-8" standalone="no"?>
<!-- Created with Inkscape (http://www.inkscape.org/) -->

<svg
   xmlns:dc="http://purl.org/dc/elements/1.1/"
   xmlns:cc="http://creativecommons.org/ns#"
   xmlns:rdf="http://www.w3.org/1999/02/22-rdf-syntax-ns#"
   xmlns:svg="http://www.w3.org/2000/svg"
   xmlns="http://www.w3.org/2000/svg"
   xmlns:xlink="http://www.w3.org/1999/xlink"
   xmlns:sodipodi="http://sodipodi.sourceforge.net/DTD/sodipodi-0.dtd"
   xmlns:inkscape="http://www.inkscape.org/namespaces/inkscape"
   width="29.285715"
   height="28.928572"
   id="svg5663"
   version="1.1"
   inkscape:version="0.48.4 r9939"
   sodipodi:docname="container_square20reefer.svg">
  <defs
     id="defs5665">
    <linearGradient
       inkscape:collect="always"
       id="linearGradient3014">
      <stop
         style="stop-color:#f2f2f2;stop-opacity:1;"
         offset="0"
         id="stop3016" />
      <stop
         style="stop-color:#f2f2f2;stop-opacity:0;"
         offset="1"
         id="stop3018" />
    </linearGradient>
    <linearGradient
       inkscape:collect="always"
       xlink:href="#linearGradient3014"
       id="linearGradient3020"
       x1="7.2321429"
       y1="1052.7194"
       x2="12.232142"
       y2="1057.1836"
       gradientUnits="userSpaceOnUse" />
    <linearGradient
       inkscape:collect="always"
       xlink:href="#linearGradient3008"
       id="linearGradient3006"
       gradientUnits="userSpaceOnUse"
       x1="1.5178572"
       y1="1052.8981"
       x2="29.285717"
       y2="1025.5765" />
    <linearGradient
       id="linearGradient3008"
       inkscape:collect="always">
      <stop
         id="stop3010"
         offset="0"
         style="stop-color:#808080;stop-opacity:1" />
      <stop
         id="stop3012"
         offset="1"
         style="stop-color:#f2f2f2;stop-opacity:0;" />
    </linearGradient>
    <linearGradient
       y2="1025.5765"
       x2="29.285717"
       y1="1052.8981"
       x1="1.5178572"
       gradientUnits="userSpaceOnUse"
       id="linearGradient3038"
       xlink:href="#linearGradient3008"
       inkscape:collect="always"
       gradientTransform="translate(0.08928534,1.7471429e-5)" />
  </defs>
  <sodipodi:namedview
     id="base"
     pagecolor="#ffffff"
     bordercolor="#666666"
     borderopacity="1.0"
     inkscape:pageopacity="0.0"
     inkscape:pageshadow="2"
     inkscape:zoom="11.2"
     inkscape:cx="21.803448"
     inkscape:cy="13.357589"
     inkscape:document-units="px"
     inkscape:current-layer="layer1"
     showgrid="false"
     fit-margin-top="0"
     fit-margin-left="0"
     fit-margin-right="0"
     fit-margin-bottom="0"
     inkscape:window-width="1280"
     inkscape:window-height="706"
     inkscape:window-x="-8"
     inkscape:window-y="-8"
     inkscape:window-maximized="1" />
  <metadata
     id="metadata5668">
    <rdf:RDF>
      <cc:Work
         rdf:about="">
        <dc:format>image/svg+xml</dc:format>
        <dc:type
           rdf:resource="http://purl.org/dc/dcmitype/StillImage" />
        <dc:title />
      </cc:Work>
    </rdf:RDF>
  </metadata>
  <g
     inkscape:label="Livello 1"
     inkscape:groupmode="layer"
     id="layer1"
     transform="translate(-0.71428573,-1024.8622)">
    <path
       style="fill:#000080;fill-opacity:1"
       d="m 26.042523,1030.4904 0,-0.9759 -0.633532,0.647 -0.633531,0.6472 -0.29859,-0.3078 -0.298589,-0.308 0.656887,-0.6731 0.656887,-0.673 -0.35746,-0.029 c -0.196604,-0.015 -0.632524,-0.029 -0.968709,-0.029 l -0.611248,-3e-4 0,-0.4159 0,-0.4161 0.916548,-0.014 0.916548,-0.014 -0.616287,-0.5675 c -0.338956,-0.3121 -0.615766,-0.5788 -0.615133,-0.5926 6.33e-4,-0.014 0.12326,-0.1623 0.272512,-0.3304 l 0.271359,-0.3054 0.644604,0.6016 c 0.354533,0.3311 0.65656,0.6017 0.67117,0.6017 0.01461,0 0.02656,-0.3949 0.02656,-0.8776 l 0,-0.8778 0.407498,0 0.407499,0 0,0.9321 0,0.9321 0.685987,-0.7009 0.685988,-0.7008 0.300904,0.3055 0.300903,0.3055 -0.632474,0.6482 -0.632476,0.6482 0.868079,0 0.868078,0 0,0.4379 0,0.438 -0.840268,0.014 -0.840269,0.014 0.665821,0.6118 0.66582,0.6118 -0.259304,0.2992 c -0.142618,0.1646 -0.271618,0.3067 -0.286669,0.3157 -0.01506,0.014 -0.355508,-0.2877 -0.756572,-0.6596 l -0.729206,-0.676 -0.01155,1.0541 -0.01155,1.0541 -0.428183,0 -0.428183,0 0,-0.9758 z"
       id="path3100"
       inkscape:connector-curvature="0" />
    <rect
       style="fill:url(#linearGradient3038);fill-opacity:1"
       id="rect5671"
       width="29.285715"
       height="28.928572"
       x="0.80357105"
       y="1024.8622" />
    <text
       xml:space="preserve"
       style="font-size:40px;font-style:normal;font-weight:normal;line-height:125%;letter-spacing:0px;word-spacing:0px;fill:#000000;fill-opacity:1;stroke:none;font-family:Sans"
       x="10.710902"
       y="1041.9686"
       id="text3009-1"
       sodipodi:linespacing="125%"><tspan
         sodipodi:role="line"
         id="tspan3011-7"
         x="10.710902"
         y="1041.9686"
         style="font-size:9px;font-style:normal;font-variant:normal;font-weight:normal;font-stretch:normal;font-family:Franklin Gothic Demi;-inkscape-font-specification:Franklin Gothic Demi">20</tspan></text>
  </g>
</svg>
